<?xml version="1.0" encoding="utf-8" standalone="no"?>
<!DOCTYPE svg PUBLIC "-//W3C//DTD SVG 1.1//EN"
  "http://www.w3.org/Graphics/SVG/1.1/DTD/svg11.dtd">
<svg height="252pt" version="1.1" viewBox="0 0 504 252" width="504pt" xmlns="http://www.w3.org/2000/svg" xmlns:xlink="http://www.w3.org/1999/xlink">
 <metadata>
  <rdf:RDF xmlns:cc="http://creativecommons.org/ns#" xmlns:dc="http://purl.org/dc/elements/1.1/" xmlns:rdf="http://www.w3.org/1999/02/22-rdf-syntax-ns#">
   <cc:Work>
    <dc:type rdf:resource="http://purl.org/dc/dcmitype/StillImage"/>
    <dc:date>2021-04-09T13:05:58.519037</dc:date>
    <dc:format>image/svg+xml</dc:format>
    <dc:creator>
     <cc:Agent>
      <dc:title>Matplotlib v3.4.1, https://matplotlib.org/</dc:title>
     </cc:Agent>
    </dc:creator>
   </cc:Work>
  </rdf:RDF>
 </metadata>
 <defs>
  <style type="text/css">*{stroke-linecap:butt;stroke-linejoin:round;}</style>
 </defs>
 <g id="figure_1">
  <g id="axes_1">
   <g id="PathCollection_1">
    <path clip-path="url(#p9f5a9b3719)" d="M 32.727273 230.727273
L 32.727273 230.727273
L 32.727273 230.727273
L 32.727273 230.727273
z
" style="fill:#808080;stroke:#808080;"/>
    <path clip-path="url(#p9f5a9b3719)" d="M 32.727273 215.766234
L 32.727273 215.766234
L 32.727273 215.766234
L 32.727273 215.766234
z
" style="fill:#808080;stroke:#808080;"/>
    <path clip-path="url(#p9f5a9b3719)" d="M 32.727273 200.805195
L 32.727273 200.805195
L 32.727273 200.805195
L 32.727273 200.805195
z
" style="fill:#808080;stroke:#808080;"/>
    <path clip-path="url(#p9f5a9b3719)" d="M 32.727273 185.844156
L 32.727273 185.844156
L 32.727273 185.844156
L 32.727273 185.844156
z
" style="fill:#808080;stroke:#808080;"/>
    <path clip-path="url(#p9f5a9b3719)" d="M 32.727273 170.883117
L 32.727273 170.883117
L 32.727273 170.883117
L 32.727273 170.883117
z
" style="fill:#808080;stroke:#808080;"/>
    <path clip-path="url(#p9f5a9b3719)" d="M 32.727273 155.922078
L 32.727273 155.922078
L 32.727273 155.922078
L 32.727273 155.922078
z
" style="fill:#808080;stroke:#808080;"/>
    <path clip-path="url(#p9f5a9b3719)" d="M 32.727273 140.961039
L 32.727273 140.961039
L 32.727273 140.961039
L 32.727273 140.961039
z
" style="fill:#808080;stroke:#808080;"/>
    <path clip-path="url(#p9f5a9b3719)" d="M 32.727273 126
L 32.727273 126
L 32.727273 126
L 32.727273 126
z
" style="fill:#808080;stroke:#808080;"/>
    <path clip-path="url(#p9f5a9b3719)" d="M 32.727273 111.038961
L 32.727273 111.038961
L 32.727273 111.038961
L 32.727273 111.038961
z
" style="fill:#808080;stroke:#808080;"/>
    <path clip-path="url(#p9f5a9b3719)" d="M 32.727273 96.077922
L 32.727273 96.077922
L 32.727273 96.077922
L 32.727273 96.077922
z
" style="fill:#808080;stroke:#808080;"/>
    <path clip-path="url(#p9f5a9b3719)" d="M 32.727273 81.116883
L 32.727273 81.116883
L 32.727273 81.116883
L 32.727273 81.116883
z
" style="fill:#808080;stroke:#808080;"/>
    <path clip-path="url(#p9f5a9b3719)" d="M 32.727273 66.155844
L 32.727273 66.155844
L 32.727273 66.155844
L 32.727273 66.155844
z
" style="fill:#808080;stroke:#808080;"/>
    <path clip-path="url(#p9f5a9b3719)" d="M 32.727273 51.194805
L 32.727273 51.194805
L 32.727273 51.194805
L 32.727273 51.194805
z
" style="fill:#808080;stroke:#808080;"/>
    <path clip-path="url(#p9f5a9b3719)" d="M 32.727273 36.233766
L 32.727273 36.233766
L 32.727273 36.233766
L 32.727273 36.233766
z
" style="fill:#808080;stroke:#808080;"/>
    <path clip-path="url(#p9f5a9b3719)" d="M 32.727273 21.272727
L 32.727273 21.272727
L 32.727273 21.272727
L 32.727273 21.272727
z
" style="fill:#808080;stroke:#808080;"/>
    <path clip-path="url(#p9f5a9b3719)" d="M 45.625668 230.727273
L 45.625668 230.727273
L 45.625668 230.727273
L 45.625668 230.727273
z
" style="fill:#808080;stroke:#808080;"/>
    <path clip-path="url(#p9f5a9b3719)" d="M 45.625668 215.766234
L 45.625668 215.766234
L 45.625668 215.766234
L 45.625668 215.766234
z
" style="fill:#808080;stroke:#808080;"/>
    <path clip-path="url(#p9f5a9b3719)" d="M 45.625668 200.805195
L 45.625668 200.805195
L 45.625668 200.805195
L 45.625668 200.805195
z
" style="fill:#808080;stroke:#808080;"/>
    <path clip-path="url(#p9f5a9b3719)" d="M 45.625668 185.844156
L 45.625668 185.844156
L 45.625668 185.844156
L 45.625668 185.844156
z
" style="fill:#808080;stroke:#808080;"/>
    <path clip-path="url(#p9f5a9b3719)" d="M 45.625668 170.883117
L 45.625668 170.883117
L 45.625668 170.883117
L 45.625668 170.883117
z
" style="fill:#808080;stroke:#808080;"/>
    <path clip-path="url(#p9f5a9b3719)" d="M 45.625668 155.922078
L 45.625668 155.922078
L 45.625668 155.922078
L 45.625668 155.922078
z
" style="fill:#808080;stroke:#808080;"/>
    <path clip-path="url(#p9f5a9b3719)" d="M 45.625668 140.961039
L 45.625668 140.961039
L 45.625668 140.961039
L 45.625668 140.961039
z
" style="fill:#808080;stroke:#808080;"/>
    <path clip-path="url(#p9f5a9b3719)" d="M 45.625668 126
L 45.625668 126
L 45.625668 126
L 45.625668 126
z
" style="fill:#808080;stroke:#808080;"/>
    <path clip-path="url(#p9f5a9b3719)" d="M 45.625668 111.038961
L 45.625668 111.038961
L 45.625668 111.038961
L 45.625668 111.038961
z
" style="fill:#808080;stroke:#808080;"/>
    <path clip-path="url(#p9f5a9b3719)" d="M 45.625668 96.077922
L 45.625668 96.077922
L 45.625668 96.077922
L 45.625668 96.077922
z
" style="fill:#808080;stroke:#808080;"/>
    <path clip-path="url(#p9f5a9b3719)" d="M 45.625668 81.116883
L 45.625668 81.116883
L 45.625668 81.116883
L 45.625668 81.116883
z
" style="fill:#808080;stroke:#808080;"/>
    <path clip-path="url(#p9f5a9b3719)" d="M 45.625668 66.155844
L 45.625668 66.155844
L 45.625668 66.155844
L 45.625668 66.155844
z
" style="fill:#808080;stroke:#808080;"/>
    <path clip-path="url(#p9f5a9b3719)" d="M 45.625668 51.194805
L 45.625668 51.194805
L 45.625668 51.194805
L 45.625668 51.194805
z
" style="fill:#808080;stroke:#808080;"/>
    <path clip-path="url(#p9f5a9b3719)" d="M 45.625668 36.233766
L 45.625668 36.233766
L 45.625668 36.233766
L 45.625668 36.233766
z
" style="fill:#808080;stroke:#808080;"/>
    <path clip-path="url(#p9f5a9b3719)" d="M 45.625668 21.272727
L 45.625668 21.272727
L 45.625668 21.272727
L 45.625668 21.272727
z
" style="fill:#808080;stroke:#808080;"/>
    <path clip-path="url(#p9f5a9b3719)" d="M 58.524064 230.727273
L 58.524064 230.727273
L 58.524064 230.727273
L 58.524064 230.727273
z
" style="fill:#808080;stroke:#808080;"/>
    <path clip-path="url(#p9f5a9b3719)" d="M 58.524064 215.766234
L 58.524064 215.766234
L 58.524064 215.766234
L 58.524064 215.766234
z
" style="fill:#808080;stroke:#808080;"/>
    <path clip-path="url(#p9f5a9b3719)" d="M 58.524064 200.805195
L 58.524064 200.805195
L 58.524064 200.805195
L 58.524064 200.805195
z
" style="fill:#808080;stroke:#808080;"/>
    <path clip-path="url(#p9f5a9b3719)" d="M 58.524064 185.844156
L 58.524064 185.844156
L 58.524064 185.844156
L 58.524064 185.844156
z
" style="fill:#808080;stroke:#808080;"/>
    <path clip-path="url(#p9f5a9b3719)" d="M 58.524064 170.883117
L 58.524064 170.883117
L 58.524064 170.883117
L 58.524064 170.883117
z
" style="fill:#808080;stroke:#808080;"/>
    <path clip-path="url(#p9f5a9b3719)" d="M 58.524064 155.922078
L 58.524064 155.922078
L 58.524064 155.922078
L 58.524064 155.922078
z
" style="fill:#808080;stroke:#808080;"/>
    <path clip-path="url(#p9f5a9b3719)" d="M 58.524064 140.961039
L 58.524064 140.961039
L 58.524064 140.961039
L 58.524064 140.961039
z
" style="fill:#808080;stroke:#808080;"/>
    <path clip-path="url(#p9f5a9b3719)" d="M 58.524064 126
L 58.524064 126
L 58.524064 126
L 58.524064 126
z
" style="fill:#808080;stroke:#808080;"/>
    <path clip-path="url(#p9f5a9b3719)" d="M 58.524064 111.038961
L 58.524064 111.038961
L 58.524064 111.038961
L 58.524064 111.038961
z
" style="fill:#808080;stroke:#808080;"/>
    <path clip-path="url(#p9f5a9b3719)" d="M 58.524064 96.077922
L 58.524064 96.077922
L 58.524064 96.077922
L 58.524064 96.077922
z
" style="fill:#808080;stroke:#808080;"/>
    <path clip-path="url(#p9f5a9b3719)" d="M 58.524064 81.116883
L 58.524064 81.116883
L 58.524064 81.116883
L 58.524064 81.116883
z
" style="fill:#808080;stroke:#808080;"/>
    <path clip-path="url(#p9f5a9b3719)" d="M 58.524064 66.155844
L 58.524064 66.155844
L 58.524064 66.155844
L 58.524064 66.155844
z
" style="fill:#808080;stroke:#808080;"/>
    <path clip-path="url(#p9f5a9b3719)" d="M 58.524064 51.194805
L 58.524064 51.194805
L 58.524064 51.194805
L 58.524064 51.194805
z
" style="fill:#808080;stroke:#808080;"/>
    <path clip-path="url(#p9f5a9b3719)" d="M 58.524064 36.233766
L 58.524064 36.233766
L 58.524064 36.233766
L 58.524064 36.233766
z
" style="fill:#808080;stroke:#808080;"/>
    <path clip-path="url(#p9f5a9b3719)" d="M 58.524064 21.272727
L 58.524064 21.272727
L 58.524064 21.272727
L 58.524064 21.272727
z
" style="fill:#808080;stroke:#808080;"/>
    <path clip-path="url(#p9f5a9b3719)" d="M 71.42246 230.727273
L 71.42246 230.727273
L 71.42246 230.727273
L 71.42246 230.727273
z
" style="fill:#808080;stroke:#808080;"/>
    <path clip-path="url(#p9f5a9b3719)" d="M 71.231164 215.957529
L 71.613755 215.957529
L 71.613755 215.574938
L 71.231164 215.574938
z
" style="fill:#808080;stroke:#808080;"/>
    <path clip-path="url(#p9f5a9b3719)" d="M 70.364042 201.863613
L 72.480878 201.863613
L 72.480878 199.746777
L 70.364042 199.746777
z
" style="fill:#808080;stroke:#808080;"/>
    <path clip-path="url(#p9f5a9b3719)" d="M 70.136912 187.129703
L 72.708007 187.129703
L 72.708007 184.558608
L 70.136912 184.558608
z
" style="fill:#808080;stroke:#808080;"/>
    <path clip-path="url(#p9f5a9b3719)" d="M 70.136912 172.168664
L 72.708007 172.168664
L 72.708007 169.597569
L 70.136912 169.597569
z
" style="fill:#808080;stroke:#808080;"/>
    <path clip-path="url(#p9f5a9b3719)" d="M 70.136912 157.207625
L 72.708007 157.207625
L 72.708007 154.63653
L 70.136912 154.63653
z
" style="fill:#808080;stroke:#808080;"/>
    <path clip-path="url(#p9f5a9b3719)" d="M 70.136912 142.246586
L 72.708007 142.246586
L 72.708007 139.675491
L 70.136912 139.675491
z
" style="fill:#808080;stroke:#808080;"/>
    <path clip-path="url(#p9f5a9b3719)" d="M 70.136912 127.285548
L 72.708007 127.285548
L 72.708007 124.714452
L 70.136912 124.714452
z
" style="fill:#808080;stroke:#808080;"/>
    <path clip-path="url(#p9f5a9b3719)" d="M 70.136912 112.324509
L 72.708007 112.324509
L 72.708007 109.753414
L 70.136912 109.753414
z
" style="fill:#808080;stroke:#808080;"/>
    <path clip-path="url(#p9f5a9b3719)" d="M 70.136912 97.36347
L 72.708007 97.36347
L 72.708007 94.792375
L 70.136912 94.792375
z
" style="fill:#808080;stroke:#808080;"/>
    <path clip-path="url(#p9f5a9b3719)" d="M 70.136912 82.402431
L 72.708007 82.402431
L 72.708007 79.831336
L 70.136912 79.831336
z
" style="fill:#808080;stroke:#808080;"/>
    <path clip-path="url(#p9f5a9b3719)" d="M 70.151225 67.427079
L 72.693695 67.427079
L 72.693695 64.884609
L 70.151225 64.884609
z
" style="fill:#808080;stroke:#808080;"/>
    <path clip-path="url(#p9f5a9b3719)" d="M 70.692814 51.924451
L 72.152106 51.924451
L 72.152106 50.465159
L 70.692814 50.465159
z
" style="fill:#808080;stroke:#808080;"/>
    <path clip-path="url(#p9f5a9b3719)" d="M 71.42246 36.233766
L 71.42246 36.233766
L 71.42246 36.233766
L 71.42246 36.233766
z
" style="fill:#808080;stroke:#808080;"/>
    <path clip-path="url(#p9f5a9b3719)" d="M 71.42246 21.272727
L 71.42246 21.272727
L 71.42246 21.272727
L 71.42246 21.272727
z
" style="fill:#808080;stroke:#808080;"/>
    <path clip-path="url(#p9f5a9b3719)" d="M 84.320856 230.727273
L 84.320856 230.727273
L 84.320856 230.727273
L 84.320856 230.727273
z
" style="fill:#808080;stroke:#808080;"/>
    <path clip-path="url(#p9f5a9b3719)" d="M 83.757347 216.329742
L 84.884364 216.329742
L 84.884364 215.202726
L 83.757347 215.202726
z
" style="fill:#808080;stroke:#808080;"/>
    <path clip-path="url(#p9f5a9b3719)" d="M 81.35264 203.77341
L 87.289071 203.77341
L 87.289071 197.83698
L 81.35264 197.83698
z
" style="fill:#808080;stroke:#808080;"/>
    <path clip-path="url(#p9f5a9b3719)" d="M 80.711579 189.453432
L 87.930132 189.453432
L 87.930132 182.23488
L 80.711579 182.23488
z
" style="fill:#808080;stroke:#808080;"/>
    <path clip-path="url(#p9f5a9b3719)" d="M 80.710844 174.493129
L 87.930868 174.493129
L 87.930868 167.273105
L 80.710844 167.273105
z
" style="fill:#808080;stroke:#808080;"/>
    <path clip-path="url(#p9f5a9b3719)" d="M 80.710844 159.53209
L 87.930868 159.53209
L 87.930868 152.312066
L 80.710844 152.312066
z
" style="fill:#808080;stroke:#808080;"/>
    <path clip-path="url(#p9f5a9b3719)" d="M 80.710844 144.571051
L 87.930868 144.571051
L 87.930868 137.351027
L 80.710844 137.351027
z
" style="fill:#808080;stroke:#808080;"/>
    <path clip-path="url(#p9f5a9b3719)" d="M 80.710844 129.610012
L 87.930868 129.610012
L 87.930868 122.389988
L 80.710844 122.389988
z
" style="fill:#808080;stroke:#808080;"/>
    <path clip-path="url(#p9f5a9b3719)" d="M 80.710844 114.648973
L 87.930868 114.648973
L 87.930868 107.428949
L 80.710844 107.428949
z
" style="fill:#808080;stroke:#808080;"/>
    <path clip-path="url(#p9f5a9b3719)" d="M 80.710844 99.687934
L 87.930868 99.687934
L 87.930868 92.46791
L 80.710844 92.46791
z
" style="fill:#808080;stroke:#808080;"/>
    <path clip-path="url(#p9f5a9b3719)" d="M 80.710844 84.726895
L 87.930868 84.726895
L 87.930868 77.506871
L 80.710844 77.506871
z
" style="fill:#808080;stroke:#808080;"/>
    <path clip-path="url(#p9f5a9b3719)" d="M 80.755095 69.721604
L 87.886616 69.721604
L 87.886616 62.590084
L 80.755095 62.590084
z
" style="fill:#808080;stroke:#808080;"/>
    <path clip-path="url(#p9f5a9b3719)" d="M 82.266133 53.249528
L 86.375578 53.249528
L 86.375578 49.140082
L 82.266133 49.140082
z
" style="fill:#808080;stroke:#808080;"/>
    <path clip-path="url(#p9f5a9b3719)" d="M 84.247972 36.30665
L 84.393739 36.30665
L 84.393739 36.160883
L 84.247972 36.160883
z
" style="fill:#808080;stroke:#808080;"/>
    <path clip-path="url(#p9f5a9b3719)" d="M 84.320856 21.272727
L 84.320856 21.272727
L 84.320856 21.272727
L 84.320856 21.272727
z
" style="fill:#808080;stroke:#808080;"/>
    <path clip-path="url(#p9f5a9b3719)" d="M 97.219251 230.727273
L 97.219251 230.727273
L 97.219251 230.727273
L 97.219251 230.727273
z
" style="fill:#808080;stroke:#808080;"/>
    <path clip-path="url(#p9f5a9b3719)" d="M 96.643824 216.341661
L 97.794679 216.341661
L 97.794679 215.190806
L 96.643824 215.190806
z
" style="fill:#808080;stroke:#808080;"/>
    <path clip-path="url(#p9f5a9b3719)" d="M 94.191189 203.833257
L 100.247313 203.833257
L 100.247313 197.777133
L 94.191189 197.777133
z
" style="fill:#808080;stroke:#808080;"/>
    <path clip-path="url(#p9f5a9b3719)" d="M 93.537202 189.526205
L 100.901301 189.526205
L 100.901301 182.162106
L 93.537202 182.162106
z
" style="fill:#808080;stroke:#808080;"/>
    <path clip-path="url(#p9f5a9b3719)" d="M 93.536401 174.565968
L 100.902102 174.565968
L 100.902102 167.200266
L 93.536401 167.200266
z
" style="fill:#808080;stroke:#808080;"/>
    <path clip-path="url(#p9f5a9b3719)" d="M 93.536401 159.604929
L 100.902102 159.604929
L 100.902102 152.239227
L 93.536401 152.239227
z
" style="fill:#808080;stroke:#808080;"/>
    <path clip-path="url(#p9f5a9b3719)" d="M 93.471662 144.708628
L 100.96684 144.708628
L 100.96684 137.21345
L 93.471662 137.21345
z
" style="fill:#808080;stroke:#808080;"/>
    <path clip-path="url(#p9f5a9b3719)" d="M 93.346268 129.872983
L 101.092235 129.872983
L 101.092235 122.127017
L 93.346268 122.127017
z
" style="fill:#808080;stroke:#808080;"/>
    <path clip-path="url(#p9f5a9b3719)" d="M 93.454534 114.803678
L 100.983968 114.803678
L 100.983968 107.274244
L 93.454534 107.274244
z
" style="fill:#808080;stroke:#808080;"/>
    <path clip-path="url(#p9f5a9b3719)" d="M 93.53624 99.760933
L 100.902262 99.760933
L 100.902262 92.394911
L 93.53624 92.394911
z
" style="fill:#808080;stroke:#808080;"/>
    <path clip-path="url(#p9f5a9b3719)" d="M 93.536401 84.799734
L 100.902102 84.799734
L 100.902102 77.434032
L 93.536401 77.434032
z
" style="fill:#808080;stroke:#808080;"/>
    <path clip-path="url(#p9f5a9b3719)" d="M 93.581632 69.793463
L 100.856871 69.793463
L 100.856871 62.518225
L 93.581632 62.518225
z
" style="fill:#808080;stroke:#808080;"/>
    <path clip-path="url(#p9f5a9b3719)" d="M 95.123009 53.291047
L 99.315494 53.291047
L 99.315494 49.098563
L 95.123009 49.098563
z
" style="fill:#808080;stroke:#808080;"/>
    <path clip-path="url(#p9f5a9b3719)" d="M 97.142425 36.310592
L 97.296077 36.310592
L 97.296077 36.15694
L 97.142425 36.15694
z
" style="fill:#808080;stroke:#808080;"/>
    <path clip-path="url(#p9f5a9b3719)" d="M 97.219251 21.272727
L 97.219251 21.272727
L 97.219251 21.272727
L 97.219251 21.272727
z
" style="fill:#808080;stroke:#808080;"/>
    <path clip-path="url(#p9f5a9b3719)" d="M 110.117647 230.727273
L 110.117647 230.727273
L 110.117647 230.727273
L 110.117647 230.727273
z
" style="fill:#808080;stroke:#808080;"/>
    <path clip-path="url(#p9f5a9b3719)" d="M 109.887169 215.996712
L 110.348126 215.996712
L 110.348126 215.535755
L 109.887169 215.535755
z
" style="fill:#808080;stroke:#808080;"/>
    <path clip-path="url(#p9f5a9b3719)" d="M 108.887708 202.035133
L 111.347586 202.035133
L 111.347586 199.575256
L 108.887708 199.575256
z
" style="fill:#808080;stroke:#808080;"/>
    <path clip-path="url(#p9f5a9b3719)" d="M 108.622001 187.339802
L 111.613293 187.339802
L 111.613293 184.34851
L 108.622001 184.34851
z
" style="fill:#808080;stroke:#808080;"/>
    <path clip-path="url(#p9f5a9b3719)" d="M 108.622001 172.378763
L 111.613293 172.378763
L 111.613293 169.387471
L 108.622001 169.387471
z
" style="fill:#808080;stroke:#808080;"/>
    <path clip-path="url(#p9f5a9b3719)" d="M 108.620227 157.419498
L 111.615068 157.419498
L 111.615068 154.424657
L 108.620227 154.424657
z
" style="fill:#808080;stroke:#808080;"/>
    <path clip-path="url(#p9f5a9b3719)" d="M 107.590078 143.488608
L 112.645216 143.488608
L 112.645216 138.43347
L 107.590078 138.43347
z
" style="fill:#808080;stroke:#808080;"/>
    <path clip-path="url(#p9f5a9b3719)" d="M 106.298297 129.81935
L 113.936997 129.81935
L 113.936997 122.18065
L 106.298297 122.18065
z
" style="fill:#808080;stroke:#808080;"/>
    <path clip-path="url(#p9f5a9b3719)" d="M 107.380436 113.776173
L 112.854859 113.776173
L 112.854859 108.301749
L 107.380436 108.301749
z
" style="fill:#808080;stroke:#808080;"/>
    <path clip-path="url(#p9f5a9b3719)" d="M 108.615111 97.580458
L 111.620183 97.580458
L 111.620183 94.575386
L 108.615111 94.575386
z
" style="fill:#808080;stroke:#808080;"/>
    <path clip-path="url(#p9f5a9b3719)" d="M 108.622001 82.612529
L 111.613293 82.612529
L 111.613293 79.621237
L 108.622001 79.621237
z
" style="fill:#808080;stroke:#808080;"/>
    <path clip-path="url(#p9f5a9b3719)" d="M 108.639866 67.633625
L 111.595428 67.633625
L 111.595428 64.678063
L 108.639866 64.678063
z
" style="fill:#808080;stroke:#808080;"/>
    <path clip-path="url(#p9f5a9b3719)" d="M 109.266643 52.045809
L 110.968651 52.045809
L 110.968651 50.343802
L 109.266643 50.343802
z
" style="fill:#808080;stroke:#808080;"/>
    <path clip-path="url(#p9f5a9b3719)" d="M 110.117647 36.233766
L 110.117647 36.233766
L 110.117647 36.233766
L 110.117647 36.233766
z
" style="fill:#808080;stroke:#808080;"/>
    <path clip-path="url(#p9f5a9b3719)" d="M 110.117647 21.272727
L 110.117647 21.272727
L 110.117647 21.272727
L 110.117647 21.272727
z
" style="fill:#808080;stroke:#808080;"/>
    <path clip-path="url(#p9f5a9b3719)" d="M 123.016043 230.727273
L 123.016043 230.727273
L 123.016043 230.727273
L 123.016043 230.727273
z
" style="fill:#808080;stroke:#808080;"/>
    <path clip-path="url(#p9f5a9b3719)" d="M 123.016043 215.766234
L 123.016043 215.766234
L 123.016043 215.766234
L 123.016043 215.766234
z
" style="fill:#808080;stroke:#808080;"/>
    <path clip-path="url(#p9f5a9b3719)" d="M 123.016043 200.805195
L 123.016043 200.805195
L 123.016043 200.805195
L 123.016043 200.805195
z
" style="fill:#808080;stroke:#808080;"/>
    <path clip-path="url(#p9f5a9b3719)" d="M 123.016043 185.844156
L 123.016043 185.844156
L 123.016043 185.844156
L 123.016043 185.844156
z
" style="fill:#808080;stroke:#808080;"/>
    <path clip-path="url(#p9f5a9b3719)" d="M 123.016043 170.883117
L 123.016043 170.883117
L 123.016043 170.883117
L 123.016043 170.883117
z
" style="fill:#808080;stroke:#808080;"/>
    <path clip-path="url(#p9f5a9b3719)" d="M 122.939217 155.998904
L 123.092869 155.998904
L 123.092869 155.845252
L 122.939217 155.845252
z
" style="fill:#808080;stroke:#808080;"/>
    <path clip-path="url(#p9f5a9b3719)" d="M 120.808042 143.169039
L 125.224043 143.169039
L 125.224043 138.753039
L 120.808042 138.753039
z
" style="fill:#808080;stroke:#808080;"/>
    <path clip-path="url(#p9f5a9b3719)" d="M 119.207139 129.808904
L 126.824947 129.808904
L 126.824947 122.191096
L 119.207139 122.191096
z
" style="fill:#808080;stroke:#808080;"/>
    <path clip-path="url(#p9f5a9b3719)" d="M 120.531337 113.523667
L 125.500748 113.523667
L 125.500748 108.554255
L 120.531337 108.554255
z
" style="fill:#808080;stroke:#808080;"/>
    <path clip-path="url(#p9f5a9b3719)" d="M 122.86239 96.231574
L 123.169695 96.231574
L 123.169695 95.92427
L 122.86239 95.92427
z
" style="fill:#808080;stroke:#808080;"/>
    <path clip-path="url(#p9f5a9b3719)" d="M 123.016043 81.116883
L 123.016043 81.116883
L 123.016043 81.116883
L 123.016043 81.116883
z
" style="fill:#808080;stroke:#808080;"/>
    <path clip-path="url(#p9f5a9b3719)" d="M 123.016043 66.155844
L 123.016043 66.155844
L 123.016043 66.155844
L 123.016043 66.155844
z
" style="fill:#808080;stroke:#808080;"/>
    <path clip-path="url(#p9f5a9b3719)" d="M 123.016043 51.194805
L 123.016043 51.194805
L 123.016043 51.194805
L 123.016043 51.194805
z
" style="fill:#808080;stroke:#808080;"/>
    <path clip-path="url(#p9f5a9b3719)" d="M 123.016043 36.233766
L 123.016043 36.233766
L 123.016043 36.233766
L 123.016043 36.233766
z
" style="fill:#808080;stroke:#808080;"/>
    <path clip-path="url(#p9f5a9b3719)" d="M 123.016043 21.272727
L 123.016043 21.272727
L 123.016043 21.272727
L 123.016043 21.272727
z
" style="fill:#808080;stroke:#808080;"/>
    <path clip-path="url(#p9f5a9b3719)" d="M 135.914439 230.727273
L 135.914439 230.727273
L 135.914439 230.727273
L 135.914439 230.727273
z
" style="fill:#808080;stroke:#808080;"/>
    <path clip-path="url(#p9f5a9b3719)" d="M 135.914439 215.766234
L 135.914439 215.766234
L 135.914439 215.766234
L 135.914439 215.766234
z
" style="fill:#808080;stroke:#808080;"/>
    <path clip-path="url(#p9f5a9b3719)" d="M 135.914439 200.805195
L 135.914439 200.805195
L 135.914439 200.805195
L 135.914439 200.805195
z
" style="fill:#808080;stroke:#808080;"/>
    <path clip-path="url(#p9f5a9b3719)" d="M 135.914439 185.844156
L 135.914439 185.844156
L 135.914439 185.844156
L 135.914439 185.844156
z
" style="fill:#808080;stroke:#808080;"/>
    <path clip-path="url(#p9f5a9b3719)" d="M 135.914439 170.883117
L 135.914439 170.883117
L 135.914439 170.883117
L 135.914439 170.883117
z
" style="fill:#808080;stroke:#808080;"/>
    <path clip-path="url(#p9f5a9b3719)" d="M 135.837612 155.998904
L 135.991265 155.998904
L 135.991265 155.845252
L 135.837612 155.845252
z
" style="fill:#808080;stroke:#808080;"/>
    <path clip-path="url(#p9f5a9b3719)" d="M 133.706438 143.169039
L 138.122439 143.169039
L 138.122439 138.753039
L 133.706438 138.753039
z
" style="fill:#808080;stroke:#808080;"/>
    <path clip-path="url(#p9f5a9b3719)" d="M 132.105534 129.808904
L 139.723343 129.808904
L 139.723343 122.191096
L 132.105534 122.191096
z
" style="fill:#808080;stroke:#808080;"/>
    <path clip-path="url(#p9f5a9b3719)" d="M 133.429733 113.523667
L 138.399144 113.523667
L 138.399144 108.554255
L 133.429733 108.554255
z
" style="fill:#808080;stroke:#808080;"/>
    <path clip-path="url(#p9f5a9b3719)" d="M 135.760786 96.231574
L 136.068091 96.231574
L 136.068091 95.92427
L 135.760786 95.92427
z
" style="fill:#808080;stroke:#808080;"/>
    <path clip-path="url(#p9f5a9b3719)" d="M 135.914439 81.116883
L 135.914439 81.116883
L 135.914439 81.116883
L 135.914439 81.116883
z
" style="fill:#808080;stroke:#808080;"/>
    <path clip-path="url(#p9f5a9b3719)" d="M 135.914439 66.155844
L 135.914439 66.155844
L 135.914439 66.155844
L 135.914439 66.155844
z
" style="fill:#808080;stroke:#808080;"/>
    <path clip-path="url(#p9f5a9b3719)" d="M 135.914439 51.194805
L 135.914439 51.194805
L 135.914439 51.194805
L 135.914439 51.194805
z
" style="fill:#808080;stroke:#808080;"/>
    <path clip-path="url(#p9f5a9b3719)" d="M 135.914439 36.233766
L 135.914439 36.233766
L 135.914439 36.233766
L 135.914439 36.233766
z
" style="fill:#808080;stroke:#808080;"/>
    <path clip-path="url(#p9f5a9b3719)" d="M 135.914439 21.272727
L 135.914439 21.272727
L 135.914439 21.272727
L 135.914439 21.272727
z
" style="fill:#808080;stroke:#808080;"/>
    <path clip-path="url(#p9f5a9b3719)" d="M 148.812834 230.727273
L 148.812834 230.727273
L 148.812834 230.727273
L 148.812834 230.727273
z
" style="fill:#808080;stroke:#808080;"/>
    <path clip-path="url(#p9f5a9b3719)" d="M 148.613975 215.965093
L 149.011694 215.965093
L 149.011694 215.567374
L 148.613975 215.567374
z
" style="fill:#808080;stroke:#808080;"/>
    <path clip-path="url(#p9f5a9b3719)" d="M 147.732614 201.885415
L 149.893055 201.885415
L 149.893055 199.724974
L 147.732614 199.724974
z
" style="fill:#808080;stroke:#808080;"/>
    <path clip-path="url(#p9f5a9b3719)" d="M 147.500028 187.156962
L 150.12564 187.156962
L 150.12564 184.53135
L 147.500028 184.53135
z
" style="fill:#808080;stroke:#808080;"/>
    <path clip-path="url(#p9f5a9b3719)" d="M 147.500028 172.195923
L 150.12564 172.195923
L 150.12564 169.570311
L 147.500028 169.570311
z
" style="fill:#808080;stroke:#808080;"/>
    <path clip-path="url(#p9f5a9b3719)" d="M 147.498007 157.236905
L 150.127662 157.236905
L 150.127662 154.60725
L 147.498007 154.60725
z
" style="fill:#808080;stroke:#808080;"/>
    <path clip-path="url(#p9f5a9b3719)" d="M 146.354997 143.418876
L 151.270671 143.418876
L 151.270671 138.503202
L 146.354997 138.503202
z
" style="fill:#808080;stroke:#808080;"/>
    <path clip-path="url(#p9f5a9b3719)" d="M 144.995726 129.817108
L 152.629942 129.817108
L 152.629942 122.182892
L 144.995726 122.182892
z
" style="fill:#808080;stroke:#808080;"/>
    <path clip-path="url(#p9f5a9b3719)" d="M 146.131612 113.720183
L 151.494056 113.720183
L 151.494056 108.357739
L 146.131612 108.357739
z
" style="fill:#808080;stroke:#808080;"/>
    <path clip-path="url(#p9f5a9b3719)" d="M 147.49196 97.398796
L 150.133708 97.398796
L 150.133708 94.757048
L 147.49196 94.757048
z
" style="fill:#808080;stroke:#808080;"/>
    <path clip-path="url(#p9f5a9b3719)" d="M 147.500028 82.429689
L 150.12564 82.429689
L 150.12564 79.804077
L 147.500028 79.804077
z
" style="fill:#808080;stroke:#808080;"/>
    <path clip-path="url(#p9f5a9b3719)" d="M 147.515177 67.453501
L 150.110491 67.453501
L 150.110491 64.858187
L 147.515177 64.858187
z
" style="fill:#808080;stroke:#808080;"/>
    <path clip-path="url(#p9f5a9b3719)" d="M 148.066789 51.94085
L 149.558879 51.94085
L 149.558879 50.44876
L 148.066789 50.44876
z
" style="fill:#808080;stroke:#808080;"/>
    <path clip-path="url(#p9f5a9b3719)" d="M 148.812834 36.233766
L 148.812834 36.233766
L 148.812834 36.233766
L 148.812834 36.233766
z
" style="fill:#808080;stroke:#808080;"/>
    <path clip-path="url(#p9f5a9b3719)" d="M 148.812834 21.272727
L 148.812834 21.272727
L 148.812834 21.272727
L 148.812834 21.272727
z
" style="fill:#808080;stroke:#808080;"/>
    <path clip-path="url(#p9f5a9b3719)" d="M 161.71123 230.727273
L 161.71123 230.727273
L 161.71123 230.727273
L 161.71123 230.727273
z
" style="fill:#808080;stroke:#808080;"/>
    <path clip-path="url(#p9f5a9b3719)" d="M 161.145631 216.331833
L 162.276829 216.331833
L 162.276829 215.200635
L 161.145631 215.200635
z
" style="fill:#808080;stroke:#808080;"/>
    <path clip-path="url(#p9f5a9b3719)" d="M 158.732296 203.784128
L 164.690164 203.784128
L 164.690164 197.826261
L 158.732296 197.826261
z
" style="fill:#808080;stroke:#808080;"/>
    <path clip-path="url(#p9f5a9b3719)" d="M 158.088895 189.466491
L 165.333565 189.466491
L 165.333565 182.221821
L 158.088895 182.221821
z
" style="fill:#808080;stroke:#808080;"/>
    <path clip-path="url(#p9f5a9b3719)" d="M 158.088162 174.506185
L 165.334298 174.506185
L 165.334298 167.260049
L 158.088162 167.260049
z
" style="fill:#808080;stroke:#808080;"/>
    <path clip-path="url(#p9f5a9b3719)" d="M 158.088162 159.545146
L 165.334298 159.545146
L 165.334298 152.29901
L 158.088162 152.29901
z
" style="fill:#808080;stroke:#808080;"/>
    <path clip-path="url(#p9f5a9b3719)" d="M 158.003224 144.669045
L 165.419236 144.669045
L 165.419236 137.253033
L 158.003224 137.253033
z
" style="fill:#808080;stroke:#808080;"/>
    <path clip-path="url(#p9f5a9b3719)" d="M 157.840304 129.870925
L 165.582155 129.870925
L 165.582155 122.129075
L 157.840304 122.129075
z
" style="fill:#808080;stroke:#808080;"/>
    <path clip-path="url(#p9f5a9b3719)" d="M 157.980847 114.769344
L 165.441613 114.769344
L 165.441613 107.308578
L 157.980847 107.308578
z
" style="fill:#808080;stroke:#808080;"/>
    <path clip-path="url(#p9f5a9b3719)" d="M 158.087917 99.701235
L 165.334542 99.701235
L 165.334542 92.45461
L 158.087917 92.45461
z
" style="fill:#808080;stroke:#808080;"/>
    <path clip-path="url(#p9f5a9b3719)" d="M 158.088162 84.739951
L 165.334298 84.739951
L 165.334298 77.493815
L 158.088162 77.493815
z
" style="fill:#808080;stroke:#808080;"/>
    <path clip-path="url(#p9f5a9b3719)" d="M 158.132582 69.734492
L 165.289878 69.734492
L 165.289878 62.577196
L 158.132582 62.577196
z
" style="fill:#808080;stroke:#808080;"/>
    <path clip-path="url(#p9f5a9b3719)" d="M 159.649052 53.256983
L 163.773408 53.256983
L 163.773408 49.132627
L 159.649052 49.132627
z
" style="fill:#808080;stroke:#808080;"/>
    <path clip-path="url(#p9f5a9b3719)" d="M 161.638346 36.30665
L 161.784114 36.30665
L 161.784114 36.160883
L 161.638346 36.160883
z
" style="fill:#808080;stroke:#808080;"/>
    <path clip-path="url(#p9f5a9b3719)" d="M 161.71123 21.272727
L 161.71123 21.272727
L 161.71123 21.272727
L 161.71123 21.272727
z
" style="fill:#808080;stroke:#808080;"/>
    <path clip-path="url(#p9f5a9b3719)" d="M 174.609626 230.727273
L 174.609626 230.727273
L 174.609626 230.727273
L 174.609626 230.727273
z
" style="fill:#808080;stroke:#808080;"/>
    <path clip-path="url(#p9f5a9b3719)" d="M 174.036253 216.339606
L 175.182998 216.339606
L 175.182998 215.192861
L 174.036253 215.192861
z
" style="fill:#808080;stroke:#808080;"/>
    <path clip-path="url(#p9f5a9b3719)" d="M 171.590055 203.824766
L 177.629197 203.824766
L 177.629197 197.785624
L 171.590055 197.785624
z
" style="fill:#808080;stroke:#808080;"/>
    <path clip-path="url(#p9f5a9b3719)" d="M 170.93801 189.515771
L 178.281241 189.515771
L 178.281241 182.172541
L 170.93801 182.172541
z
" style="fill:#808080;stroke:#808080;"/>
    <path clip-path="url(#p9f5a9b3719)" d="M 170.937207 174.555536
L 178.282045 174.555536
L 178.282045 167.210698
L 170.937207 167.210698
z
" style="fill:#808080;stroke:#808080;"/>
    <path clip-path="url(#p9f5a9b3719)" d="M 170.937207 159.594497
L 178.282045 159.594497
L 178.282045 152.249659
L 170.937207 152.249659
z
" style="fill:#808080;stroke:#808080;"/>
    <path clip-path="url(#p9f5a9b3719)" d="M 170.937207 144.633458
L 178.282045 144.633458
L 178.282045 137.28862
L 170.937207 137.28862
z
" style="fill:#808080;stroke:#808080;"/>
    <path clip-path="url(#p9f5a9b3719)" d="M 170.937207 129.672419
L 178.282045 129.672419
L 178.282045 122.327581
L 170.937207 122.327581
z
" style="fill:#808080;stroke:#808080;"/>
    <path clip-path="url(#p9f5a9b3719)" d="M 170.937207 114.71138
L 178.282045 114.71138
L 178.282045 107.366542
L 170.937207 107.366542
z
" style="fill:#808080;stroke:#808080;"/>
    <path clip-path="url(#p9f5a9b3719)" d="M 170.937207 99.750341
L 178.282045 99.750341
L 178.282045 92.405503
L 170.937207 92.405503
z
" style="fill:#808080;stroke:#808080;"/>
    <path clip-path="url(#p9f5a9b3719)" d="M 170.937207 84.789302
L 178.282045 84.789302
L 178.282045 77.444464
L 170.937207 77.444464
z
" style="fill:#808080;stroke:#808080;"/>
    <path clip-path="url(#p9f5a9b3719)" d="M 170.982243 69.783227
L 178.237008 69.783227
L 178.237008 62.528461
L 170.982243 62.528461
z
" style="fill:#808080;stroke:#808080;"/>
    <path clip-path="url(#p9f5a9b3719)" d="M 172.519446 53.284985
L 176.699806 53.284985
L 176.699806 49.104625
L 172.519446 49.104625
z
" style="fill:#808080;stroke:#808080;"/>
    <path clip-path="url(#p9f5a9b3719)" d="M 174.5328 36.310592
L 174.686452 36.310592
L 174.686452 36.15694
L 174.5328 36.15694
z
" style="fill:#808080;stroke:#808080;"/>
    <path clip-path="url(#p9f5a9b3719)" d="M 174.609626 21.272727
L 174.609626 21.272727
L 174.609626 21.272727
L 174.609626 21.272727
z
" style="fill:#808080;stroke:#808080;"/>
    <path clip-path="url(#p9f5a9b3719)" d="M 187.508021 230.727273
L 187.508021 230.727273
L 187.508021 230.727273
L 187.508021 230.727273
z
" style="fill:#808080;stroke:#808080;"/>
    <path clip-path="url(#p9f5a9b3719)" d="M 187.282723 215.991532
L 187.73332 215.991532
L 187.73332 215.540935
L 187.282723 215.540935
z
" style="fill:#808080;stroke:#808080;"/>
    <path clip-path="url(#p9f5a9b3719)" d="M 186.305993 202.007223
L 188.71005 202.007223
L 188.71005 199.603166
L 186.305993 199.603166
z
" style="fill:#808080;stroke:#808080;"/>
    <path clip-path="url(#p9f5a9b3719)" d="M 186.046304 187.305873
L 188.969739 187.305873
L 188.969739 184.382438
L 186.046304 184.382438
z
" style="fill:#808080;stroke:#808080;"/>
    <path clip-path="url(#p9f5a9b3719)" d="M 186.046304 172.344834
L 188.969739 172.344834
L 188.969739 169.4214
L 186.046304 169.4214
z
" style="fill:#808080;stroke:#808080;"/>
    <path clip-path="url(#p9f5a9b3719)" d="M 186.046304 157.383795
L 188.969739 157.383795
L 188.969739 154.460361
L 186.046304 154.460361
z
" style="fill:#808080;stroke:#808080;"/>
    <path clip-path="url(#p9f5a9b3719)" d="M 186.046304 142.422756
L 188.969739 142.422756
L 188.969739 139.499322
L 186.046304 139.499322
z
" style="fill:#808080;stroke:#808080;"/>
    <path clip-path="url(#p9f5a9b3719)" d="M 186.046304 127.461717
L 188.969739 127.461717
L 188.969739 124.538283
L 186.046304 124.538283
z
" style="fill:#808080;stroke:#808080;"/>
    <path clip-path="url(#p9f5a9b3719)" d="M 186.046304 112.500678
L 188.969739 112.500678
L 188.969739 109.577244
L 186.046304 109.577244
z
" style="fill:#808080;stroke:#808080;"/>
    <path clip-path="url(#p9f5a9b3719)" d="M 186.046304 97.539639
L 188.969739 97.539639
L 188.969739 94.616205
L 186.046304 94.616205
z
" style="fill:#808080;stroke:#808080;"/>
    <path clip-path="url(#p9f5a9b3719)" d="M 186.046304 82.5786
L 188.969739 82.5786
L 188.969739 79.655166
L 186.046304 79.655166
z
" style="fill:#808080;stroke:#808080;"/>
    <path clip-path="url(#p9f5a9b3719)" d="M 186.063771 67.600094
L 188.952271 67.600094
L 188.952271 64.711594
L 186.063771 64.711594
z
" style="fill:#808080;stroke:#808080;"/>
    <path clip-path="url(#p9f5a9b3719)" d="M 186.676309 52.026517
L 188.339733 52.026517
L 188.339733 50.363093
L 186.676309 50.363093
z
" style="fill:#808080;stroke:#808080;"/>
    <path clip-path="url(#p9f5a9b3719)" d="M 187.508021 36.233766
L 187.508021 36.233766
L 187.508021 36.233766
L 187.508021 36.233766
z
" style="fill:#808080;stroke:#808080;"/>
    <path clip-path="url(#p9f5a9b3719)" d="M 187.508021 21.272727
L 187.508021 21.272727
L 187.508021 21.272727
L 187.508021 21.272727
z
" style="fill:#808080;stroke:#808080;"/>
    <path clip-path="url(#p9f5a9b3719)" d="M 200.406417 230.727273
L 200.406417 230.727273
L 200.406417 230.727273
L 200.406417 230.727273
z
" style="fill:#808080;stroke:#808080;"/>
    <path clip-path="url(#p9f5a9b3719)" d="M 200.247107 215.925544
L 200.565727 215.925544
L 200.565727 215.606924
L 200.247107 215.606924
z
" style="fill:#808080;stroke:#808080;"/>
    <path clip-path="url(#p9f5a9b3719)" d="M 199.525425 201.686187
L 201.287409 201.686187
L 201.287409 199.924203
L 199.525425 199.924203
z
" style="fill:#808080;stroke:#808080;"/>
    <path clip-path="url(#p9f5a9b3719)" d="M 199.336353 186.91422
L 201.476482 186.91422
L 201.476482 184.774091
L 199.336353 184.774091
z
" style="fill:#808080;stroke:#808080;"/>
    <path clip-path="url(#p9f5a9b3719)" d="M 199.336353 171.953181
L 201.476482 171.953181
L 201.476482 169.813052
L 199.336353 169.813052
z
" style="fill:#808080;stroke:#808080;"/>
    <path clip-path="url(#p9f5a9b3719)" d="M 199.336353 156.992142
L 201.476482 156.992142
L 201.476482 154.852013
L 199.336353 154.852013
z
" style="fill:#808080;stroke:#808080;"/>
    <path clip-path="url(#p9f5a9b3719)" d="M 199.336353 142.031104
L 201.476482 142.031104
L 201.476482 139.890974
L 199.336353 139.890974
z
" style="fill:#808080;stroke:#808080;"/>
    <path clip-path="url(#p9f5a9b3719)" d="M 199.336353 127.070065
L 201.476482 127.070065
L 201.476482 124.929935
L 199.336353 124.929935
z
" style="fill:#808080;stroke:#808080;"/>
    <path clip-path="url(#p9f5a9b3719)" d="M 199.336904 112.108474
L 201.47593 112.108474
L 201.47593 109.969448
L 199.336904 109.969448
z
" style="fill:#808080;stroke:#808080;"/>
    <path clip-path="url(#p9f5a9b3719)" d="M 199.582907 96.901433
L 201.229928 96.901433
L 201.229928 95.254412
L 199.582907 95.254412
z
" style="fill:#808080;stroke:#808080;"/>
    <path clip-path="url(#p9f5a9b3719)" d="M 199.712426 81.810875
L 201.100409 81.810875
L 201.100409 80.422892
L 199.712426 80.422892
z
" style="fill:#808080;stroke:#808080;"/>
    <path clip-path="url(#p9f5a9b3719)" d="M 199.35359 67.208671
L 201.459244 67.208671
L 201.459244 65.103017
L 199.35359 65.103017
z
" style="fill:#808080;stroke:#808080;"/>
    <path clip-path="url(#p9f5a9b3719)" d="M 199.799053 51.802169
L 201.013781 51.802169
L 201.013781 50.587441
L 199.799053 50.587441
z
" style="fill:#808080;stroke:#808080;"/>
    <path clip-path="url(#p9f5a9b3719)" d="M 200.406417 36.233766
L 200.406417 36.233766
L 200.406417 36.233766
L 200.406417 36.233766
z
" style="fill:#808080;stroke:#808080;"/>
    <path clip-path="url(#p9f5a9b3719)" d="M 200.406417 21.272727
L 200.406417 21.272727
L 200.406417 21.272727
L 200.406417 21.272727
z
" style="fill:#808080;stroke:#808080;"/>
    <path clip-path="url(#p9f5a9b3719)" d="M 213.304813 230.727273
L 213.304813 230.727273
L 213.304813 230.727273
L 213.304813 230.727273
z
" style="fill:#808080;stroke:#808080;"/>
    <path clip-path="url(#p9f5a9b3719)" d="M 212.756702 216.314344
L 213.852923 216.314344
L 213.852923 215.218123
L 212.756702 215.218123
z
" style="fill:#808080;stroke:#808080;"/>
    <path clip-path="url(#p9f5a9b3719)" d="M 210.416313 203.693695
L 216.193313 203.693695
L 216.193313 197.916695
L 210.416313 197.916695
z
" style="fill:#808080;stroke:#808080;"/>
    <path clip-path="url(#p9f5a9b3719)" d="M 209.79242 189.356548
L 216.817205 189.356548
L 216.817205 182.331763
L 209.79242 182.331763
z
" style="fill:#808080;stroke:#808080;"/>
    <path clip-path="url(#p9f5a9b3719)" d="M 209.791748 174.396181
L 216.817877 174.396181
L 216.817877 167.370052
L 209.791748 167.370052
z
" style="fill:#808080;stroke:#808080;"/>
    <path clip-path="url(#p9f5a9b3719)" d="M 209.791748 159.435142
L 216.817877 159.435142
L 216.817877 152.409013
L 209.791748 152.409013
z
" style="fill:#808080;stroke:#808080;"/>
    <path clip-path="url(#p9f5a9b3719)" d="M 209.791748 144.474104
L 216.817877 144.474104
L 216.817877 137.447974
L 209.791748 137.447974
z
" style="fill:#808080;stroke:#808080;"/>
    <path clip-path="url(#p9f5a9b3719)" d="M 209.791748 129.513065
L 216.817877 129.513065
L 216.817877 122.486935
L 209.791748 122.486935
z
" style="fill:#808080;stroke:#808080;"/>
    <path clip-path="url(#p9f5a9b3719)" d="M 209.794521 114.549252
L 216.815104 114.549252
L 216.815104 107.52867
L 209.794521 107.52867
z
" style="fill:#808080;stroke:#808080;"/>
    <path clip-path="url(#p9f5a9b3719)" d="M 210.603305 98.77943
L 216.00632 98.77943
L 216.00632 93.376415
L 210.603305 93.376415
z
" style="fill:#808080;stroke:#808080;"/>
    <path clip-path="url(#p9f5a9b3719)" d="M 211.023322 83.398374
L 215.586304 83.398374
L 215.586304 78.835392
L 211.023322 78.835392
z
" style="fill:#808080;stroke:#808080;"/>
    <path clip-path="url(#p9f5a9b3719)" d="M 209.855669 69.604988
L 216.753957 69.604988
L 216.753957 62.7067
L 209.855669 62.7067
z
" style="fill:#808080;stroke:#808080;"/>
    <path clip-path="url(#p9f5a9b3719)" d="M 211.305265 53.194353
L 215.30436 53.194353
L 215.30436 49.195258
L 211.305265 49.195258
z
" style="fill:#808080;stroke:#808080;"/>
    <path clip-path="url(#p9f5a9b3719)" d="M 213.236097 36.302482
L 213.373528 36.302482
L 213.373528 36.165051
L 213.236097 36.165051
z
" style="fill:#808080;stroke:#808080;"/>
    <path clip-path="url(#p9f5a9b3719)" d="M 213.304813 21.272727
L 213.304813 21.272727
L 213.304813 21.272727
L 213.304813 21.272727
z
" style="fill:#808080;stroke:#808080;"/>
    <path clip-path="url(#p9f5a9b3719)" d="M 226.203209 230.727273
L 226.203209 230.727273
L 226.203209 230.727273
L 226.203209 230.727273
z
" style="fill:#808080;stroke:#808080;"/>
    <path clip-path="url(#p9f5a9b3719)" d="M 225.632416 216.337027
L 226.774002 216.337027
L 226.774002 215.195441
L 225.632416 215.195441
z
" style="fill:#808080;stroke:#808080;"/>
    <path clip-path="url(#p9f5a9b3719)" d="M 223.19274 203.815663
L 229.213677 203.815663
L 229.213677 197.794727
L 223.19274 197.794727
z
" style="fill:#808080;stroke:#808080;"/>
    <path clip-path="url(#p9f5a9b3719)" d="M 222.542863 189.504501
L 229.863554 189.504501
L 229.863554 182.183811
L 222.542863 182.183811
z
" style="fill:#808080;stroke:#808080;"/>
    <path clip-path="url(#p9f5a9b3719)" d="M 222.542057 174.544268
L 229.86436 174.544268
L 229.86436 167.221966
L 222.542057 167.221966
z
" style="fill:#808080;stroke:#808080;"/>
    <path clip-path="url(#p9f5a9b3719)" d="M 222.542057 159.583229
L 229.86436 159.583229
L 229.86436 152.260927
L 222.542057 152.260927
z
" style="fill:#808080;stroke:#808080;"/>
    <path clip-path="url(#p9f5a9b3719)" d="M 222.542057 144.62219
L 229.86436 144.62219
L 229.86436 137.299888
L 222.542057 137.299888
z
" style="fill:#808080;stroke:#808080;"/>
    <path clip-path="url(#p9f5a9b3719)" d="M 222.542057 129.661151
L 229.86436 129.661151
L 229.86436 122.338849
L 222.542057 122.338849
z
" style="fill:#808080;stroke:#808080;"/>
    <path clip-path="url(#p9f5a9b3719)" d="M 222.545041 114.697129
L 229.861376 114.697129
L 229.861376 107.380793
L 222.545041 107.380793
z
" style="fill:#808080;stroke:#808080;"/>
    <path clip-path="url(#p9f5a9b3719)" d="M 223.387553 98.893577
L 229.018864 98.893577
L 229.018864 93.262267
L 223.387553 93.262267
z
" style="fill:#808080;stroke:#808080;"/>
    <path clip-path="url(#p9f5a9b3719)" d="M 223.825442 83.49465
L 228.580975 83.49465
L 228.580975 78.739117
L 223.825442 78.739117
z
" style="fill:#808080;stroke:#808080;"/>
    <path clip-path="url(#p9f5a9b3719)" d="M 222.608598 69.750455
L 229.797819 69.750455
L 229.797819 62.561234
L 222.608598 62.561234
z
" style="fill:#808080;stroke:#808080;"/>
    <path clip-path="url(#p9f5a9b3719)" d="M 224.119675 53.278339
L 228.286742 53.278339
L 228.286742 49.111272
L 224.119675 49.111272
z
" style="fill:#808080;stroke:#808080;"/>
    <path clip-path="url(#p9f5a9b3719)" d="M 226.126382 36.310592
L 226.280035 36.310592
L 226.280035 36.15694
L 226.126382 36.15694
z
" style="fill:#808080;stroke:#808080;"/>
    <path clip-path="url(#p9f5a9b3719)" d="M 226.203209 21.272727
L 226.203209 21.272727
L 226.203209 21.272727
L 226.203209 21.272727
z
" style="fill:#808080;stroke:#808080;"/>
    <path clip-path="url(#p9f5a9b3719)" d="M 239.101604 230.727273
L 239.101604 230.727273
L 239.101604 230.727273
L 239.101604 230.727273
z
" style="fill:#808080;stroke:#808080;"/>
    <path clip-path="url(#p9f5a9b3719)" d="M 238.881608 215.98623
L 239.321601 215.98623
L 239.321601 215.546237
L 238.881608 215.546237
z
" style="fill:#808080;stroke:#808080;"/>
    <path clip-path="url(#p9f5a9b3719)" d="M 237.928149 201.97865
L 240.275059 201.97865
L 240.275059 199.63174
L 237.928149 199.63174
z
" style="fill:#808080;stroke:#808080;"/>
    <path clip-path="url(#p9f5a9b3719)" d="M 237.663292 187.282468
L 240.539916 187.282468
L 240.539916 184.405844
L 237.663292 184.405844
z
" style="fill:#808080;stroke:#808080;"/>
    <path clip-path="url(#p9f5a9b3719)" d="M 237.649204 172.335517
L 240.554005 172.335517
L 240.554005 169.430716
L 237.649204 169.430716
z
" style="fill:#808080;stroke:#808080;"/>
    <path clip-path="url(#p9f5a9b3719)" d="M 237.674622 157.34906
L 240.528587 157.34906
L 240.528587 154.495095
L 237.674622 154.495095
z
" style="fill:#808080;stroke:#808080;"/>
    <path clip-path="url(#p9f5a9b3719)" d="M 237.674001 142.388642
L 240.529207 142.388642
L 240.529207 139.533436
L 237.674001 139.533436
z
" style="fill:#808080;stroke:#808080;"/>
    <path clip-path="url(#p9f5a9b3719)" d="M 237.66699 127.434614
L 240.536218 127.434614
L 240.536218 124.565386
L 237.66699 124.565386
z
" style="fill:#808080;stroke:#808080;"/>
    <path clip-path="url(#p9f5a9b3719)" d="M 237.674415 112.46615
L 240.528794 112.46615
L 240.528794 109.611772
L 237.674415 109.611772
z
" style="fill:#808080;stroke:#808080;"/>
    <path clip-path="url(#p9f5a9b3719)" d="M 238.004576 97.17495
L 240.198632 97.17495
L 240.198632 94.980894
L 238.004576 94.980894
z
" style="fill:#808080;stroke:#808080;"/>
    <path clip-path="url(#p9f5a9b3719)" d="M 238.175857 82.04263
L 240.027352 82.04263
L 240.027352 80.191136
L 238.175857 80.191136
z
" style="fill:#808080;stroke:#808080;"/>
    <path clip-path="url(#p9f5a9b3719)" d="M 237.699869 67.557579
L 240.50334 67.557579
L 240.50334 64.754109
L 237.699869 64.754109
z
" style="fill:#808080;stroke:#808080;"/>
    <path clip-path="url(#p9f5a9b3719)" d="M 238.289642 52.006767
L 239.913566 52.006767
L 239.913566 50.382843
L 238.289642 50.382843
z
" style="fill:#808080;stroke:#808080;"/>
    <path clip-path="url(#p9f5a9b3719)" d="M 239.101604 36.233766
L 239.101604 36.233766
L 239.101604 36.233766
L 239.101604 36.233766
z
" style="fill:#808080;stroke:#808080;"/>
    <path clip-path="url(#p9f5a9b3719)" d="M 239.101604 21.272727
L 239.101604 21.272727
L 239.101604 21.272727
L 239.101604 21.272727
z
" style="fill:#808080;stroke:#808080;"/>
    <path clip-path="url(#p9f5a9b3719)" d="M 252 230.727273
L 252 230.727273
L 252 230.727273
L 252 230.727273
z
" style="fill:#808080;stroke:#808080;"/>
    <path clip-path="url(#p9f5a9b3719)" d="M 252 215.766234
L 252 215.766234
L 252 215.766234
L 252 215.766234
z
" style="fill:#808080;stroke:#808080;"/>
    <path clip-path="url(#p9f5a9b3719)" d="M 251.393608 201.411586
L 252.606392 201.411586
L 252.606392 200.198803
L 251.393608 200.198803
z
" style="fill:#808080;stroke:#808080;"/>
    <path clip-path="url(#p9f5a9b3719)" d="M 249.860009 187.984147
L 254.139991 187.984147
L 254.139991 183.704165
L 249.860009 183.704165
z
" style="fill:#808080;stroke:#808080;"/>
    <path clip-path="url(#p9f5a9b3719)" d="M 250.038449 172.844668
L 253.961551 172.844668
L 253.961551 168.921566
L 250.038449 168.921566
z
" style="fill:#808080;stroke:#808080;"/>
    <path clip-path="url(#p9f5a9b3719)" d="M 251.556666 156.365412
L 252.443334 156.365412
L 252.443334 155.478744
L 251.556666 155.478744
z
" style="fill:#808080;stroke:#808080;"/>
    <path clip-path="url(#p9f5a9b3719)" d="M 250.279883 142.681156
L 253.720117 142.681156
L 253.720117 139.240922
L 250.279883 139.240922
z
" style="fill:#808080;stroke:#808080;"/>
    <path clip-path="url(#p9f5a9b3719)" d="M 249.610719 128.389281
L 254.389281 128.389281
L 254.389281 123.610719
L 249.610719 123.610719
z
" style="fill:#808080;stroke:#808080;"/>
    <path clip-path="url(#p9f5a9b3719)" d="M 250.186838 112.852123
L 253.813162 112.852123
L 253.813162 109.225799
L 250.186838 109.225799
z
" style="fill:#808080;stroke:#808080;"/>
    <path clip-path="url(#p9f5a9b3719)" d="M 251.489814 96.588108
L 252.510186 96.588108
L 252.510186 95.567736
L 251.489814 95.567736
z
" style="fill:#808080;stroke:#808080;"/>
    <path clip-path="url(#p9f5a9b3719)" d="M 252 81.116883
L 252 81.116883
L 252 81.116883
L 252 81.116883
z
" style="fill:#808080;stroke:#808080;"/>
    <path clip-path="url(#p9f5a9b3719)" d="M 252 66.155844
L 252 66.155844
L 252 66.155844
L 252 66.155844
z
" style="fill:#808080;stroke:#808080;"/>
    <path clip-path="url(#p9f5a9b3719)" d="M 252 51.194805
L 252 51.194805
L 252 51.194805
L 252 51.194805
z
" style="fill:#808080;stroke:#808080;"/>
    <path clip-path="url(#p9f5a9b3719)" d="M 252 36.233766
L 252 36.233766
L 252 36.233766
L 252 36.233766
z
" style="fill:#808080;stroke:#808080;"/>
    <path clip-path="url(#p9f5a9b3719)" d="M 252 21.272727
L 252 21.272727
L 252 21.272727
L 252 21.272727
z
" style="fill:#808080;stroke:#808080;"/>
    <path clip-path="url(#p9f5a9b3719)" d="M 264.898396 230.727273
L 264.898396 230.727273
L 264.898396 230.727273
L 264.898396 230.727273
z
" style="fill:#808080;stroke:#808080;"/>
    <path clip-path="url(#p9f5a9b3719)" d="M 264.670493 215.994137
L 265.126299 215.994137
L 265.126299 215.538331
L 264.670493 215.538331
z
" style="fill:#808080;stroke:#808080;"/>
    <path clip-path="url(#p9f5a9b3719)" d="M 262.680261 203.02333
L 267.116531 203.02333
L 267.116531 198.58706
L 262.680261 198.58706
z
" style="fill:#808080;stroke:#808080;"/>
    <path clip-path="url(#p9f5a9b3719)" d="M 261.18848 189.554072
L 268.608312 189.554072
L 268.608312 182.13424
L 261.18848 182.13424
z
" style="fill:#808080;stroke:#808080;"/>
    <path clip-path="url(#p9f5a9b3719)" d="M 262.129455 173.652058
L 267.667337 173.652058
L 267.667337 168.114176
L 262.129455 168.114176
z
" style="fill:#808080;stroke:#808080;"/>
    <path clip-path="url(#p9f5a9b3719)" d="M 263.065806 157.754668
L 266.730985 157.754668
L 266.730985 154.089488
L 263.065806 154.089488
z
" style="fill:#808080;stroke:#808080;"/>
    <path clip-path="url(#p9f5a9b3719)" d="M 261.300257 144.559178
L 268.496535 144.559178
L 268.496535 137.3629
L 261.300257 137.3629
z
" style="fill:#808080;stroke:#808080;"/>
    <path clip-path="url(#p9f5a9b3719)" d="M 261.060854 129.837542
L 268.735937 129.837542
L 268.735937 122.162458
L 261.060854 122.162458
z
" style="fill:#808080;stroke:#808080;"/>
    <path clip-path="url(#p9f5a9b3719)" d="M 261.238292 114.699064
L 268.558499 114.699064
L 268.558499 107.378858
L 261.238292 107.378858
z
" style="fill:#808080;stroke:#808080;"/>
    <path clip-path="url(#p9f5a9b3719)" d="M 262.792182 98.184136
L 267.00461 98.184136
L 267.00461 93.971708
L 262.792182 93.971708
z
" style="fill:#808080;stroke:#808080;"/>
    <path clip-path="url(#p9f5a9b3719)" d="M 264.711786 81.303493
L 265.085006 81.303493
L 265.085006 80.930273
L 264.711786 80.930273
z
" style="fill:#808080;stroke:#808080;"/>
    <path clip-path="url(#p9f5a9b3719)" d="M 264.898396 66.155844
L 264.898396 66.155844
L 264.898396 66.155844
L 264.898396 66.155844
z
" style="fill:#808080;stroke:#808080;"/>
    <path clip-path="url(#p9f5a9b3719)" d="M 264.898396 51.194805
L 264.898396 51.194805
L 264.898396 51.194805
L 264.898396 51.194805
z
" style="fill:#808080;stroke:#808080;"/>
    <path clip-path="url(#p9f5a9b3719)" d="M 264.898396 36.233766
L 264.898396 36.233766
L 264.898396 36.233766
L 264.898396 36.233766
z
" style="fill:#808080;stroke:#808080;"/>
    <path clip-path="url(#p9f5a9b3719)" d="M 264.898396 21.272727
L 264.898396 21.272727
L 264.898396 21.272727
L 264.898396 21.272727
z
" style="fill:#808080;stroke:#808080;"/>
    <path clip-path="url(#p9f5a9b3719)" d="M 277.796791 230.727273
L 277.796791 230.727273
L 277.796791 230.727273
L 277.796791 230.727273
z
" style="fill:#808080;stroke:#808080;"/>
    <path clip-path="url(#p9f5a9b3719)" d="M 277.075689 216.487336
L 278.517894 216.487336
L 278.517894 215.045131
L 277.075689 215.045131
z
" style="fill:#808080;stroke:#808080;"/>
    <path clip-path="url(#p9f5a9b3719)" d="M 274.573936 204.02805
L 281.019646 204.02805
L 281.019646 197.58234
L 274.573936 197.58234
z
" style="fill:#808080;stroke:#808080;"/>
    <path clip-path="url(#p9f5a9b3719)" d="M 274.222187 189.418761
L 281.371396 189.418761
L 281.371396 182.269551
L 274.222187 182.269551
z
" style="fill:#808080;stroke:#808080;"/>
    <path clip-path="url(#p9f5a9b3719)" d="M 275.794 172.885909
L 279.799583 172.885909
L 279.799583 168.880325
L 275.794 168.880325
z
" style="fill:#808080;stroke:#808080;"/>
    <path clip-path="url(#p9f5a9b3719)" d="M 274.894023 158.824846
L 280.69956 158.824846
L 280.69956 153.01931
L 274.894023 153.01931
z
" style="fill:#808080;stroke:#808080;"/>
    <path clip-path="url(#p9f5a9b3719)" d="M 273.953256 144.804574
L 281.640327 144.804574
L 281.640327 137.117504
L 273.953256 137.117504
z
" style="fill:#808080;stroke:#808080;"/>
    <path clip-path="url(#p9f5a9b3719)" d="M 274.651513 129.145278
L 280.94207 129.145278
L 280.94207 122.854722
L 274.651513 122.854722
z
" style="fill:#808080;stroke:#808080;"/>
    <path clip-path="url(#p9f5a9b3719)" d="M 274.250534 114.585219
L 281.343049 114.585219
L 281.343049 107.492704
L 274.250534 107.492704
z
" style="fill:#808080;stroke:#808080;"/>
    <path clip-path="url(#p9f5a9b3719)" d="M 274.692786 99.181927
L 280.900796 99.181927
L 280.900796 92.973917
L 274.692786 92.973917
z
" style="fill:#808080;stroke:#808080;"/>
    <path clip-path="url(#p9f5a9b3719)" d="M 277.212711 81.700964
L 278.380872 81.700964
L 278.380872 80.532802
L 277.212711 80.532802
z
" style="fill:#808080;stroke:#808080;"/>
    <path clip-path="url(#p9f5a9b3719)" d="M 277.796791 66.155844
L 277.796791 66.155844
L 277.796791 66.155844
L 277.796791 66.155844
z
" style="fill:#808080;stroke:#808080;"/>
    <path clip-path="url(#p9f5a9b3719)" d="M 277.796791 51.194805
L 277.796791 51.194805
L 277.796791 51.194805
L 277.796791 51.194805
z
" style="fill:#808080;stroke:#808080;"/>
    <path clip-path="url(#p9f5a9b3719)" d="M 277.796791 36.233766
L 277.796791 36.233766
L 277.796791 36.233766
L 277.796791 36.233766
z
" style="fill:#808080;stroke:#808080;"/>
    <path clip-path="url(#p9f5a9b3719)" d="M 277.796791 21.272727
L 277.796791 21.272727
L 277.796791 21.272727
L 277.796791 21.272727
z
" style="fill:#808080;stroke:#808080;"/>
    <path clip-path="url(#p9f5a9b3719)" d="M 290.695187 230.727273
L 290.695187 230.727273
L 290.695187 230.727273
L 290.695187 230.727273
z
" style="fill:#808080;stroke:#808080;"/>
    <path clip-path="url(#p9f5a9b3719)" d="M 289.667898 216.793523
L 291.722477 216.793523
L 291.722477 214.738944
L 289.667898 214.738944
z
" style="fill:#808080;stroke:#808080;"/>
    <path clip-path="url(#p9f5a9b3719)" d="M 287.215378 204.285004
L 294.174997 204.285004
L 294.174997 197.325385
L 287.215378 197.325385
z
" style="fill:#808080;stroke:#808080;"/>
    <path clip-path="url(#p9f5a9b3719)" d="M 287.81047 188.728873
L 293.579905 188.728873
L 293.579905 182.959438
L 287.81047 182.959438
z
" style="fill:#808080;stroke:#808080;"/>
    <path clip-path="url(#p9f5a9b3719)" d="M 289.59306 171.985244
L 291.797315 171.985244
L 291.797315 169.780989
L 289.59306 169.780989
z
" style="fill:#808080;stroke:#808080;"/>
    <path clip-path="url(#p9f5a9b3719)" d="M 287.253067 159.364198
L 294.137308 159.364198
L 294.137308 152.479957
L 287.253067 152.479957
z
" style="fill:#808080;stroke:#808080;"/>
    <path clip-path="url(#p9f5a9b3719)" d="M 286.981375 144.674851
L 294.408999 144.674851
L 294.408999 137.247227
L 286.981375 137.247227
z
" style="fill:#808080;stroke:#808080;"/>
    <path clip-path="url(#p9f5a9b3719)" d="M 288.927685 127.767503
L 292.46269 127.767503
L 292.46269 124.232497
L 288.927685 124.232497
z
" style="fill:#808080;stroke:#808080;"/>
    <path clip-path="url(#p9f5a9b3719)" d="M 287.643438 114.09071
L 293.746936 114.09071
L 293.746936 107.987212
L 287.643438 107.987212
z
" style="fill:#808080;stroke:#808080;"/>
    <path clip-path="url(#p9f5a9b3719)" d="M 287.356297 99.416812
L 294.034077 99.416812
L 294.034077 92.739032
L 287.356297 92.739032
z
" style="fill:#808080;stroke:#808080;"/>
    <path clip-path="url(#p9f5a9b3719)" d="M 289.899378 81.912692
L 291.490996 81.912692
L 291.490996 80.321074
L 289.899378 80.321074
z
" style="fill:#808080;stroke:#808080;"/>
    <path clip-path="url(#p9f5a9b3719)" d="M 290.695187 66.155844
L 290.695187 66.155844
L 290.695187 66.155844
L 290.695187 66.155844
z
" style="fill:#808080;stroke:#808080;"/>
    <path clip-path="url(#p9f5a9b3719)" d="M 290.695187 51.194805
L 290.695187 51.194805
L 290.695187 51.194805
L 290.695187 51.194805
z
" style="fill:#808080;stroke:#808080;"/>
    <path clip-path="url(#p9f5a9b3719)" d="M 290.695187 36.233766
L 290.695187 36.233766
L 290.695187 36.233766
L 290.695187 36.233766
z
" style="fill:#808080;stroke:#808080;"/>
    <path clip-path="url(#p9f5a9b3719)" d="M 290.695187 21.272727
L 290.695187 21.272727
L 290.695187 21.272727
L 290.695187 21.272727
z
" style="fill:#808080;stroke:#808080;"/>
    <path clip-path="url(#p9f5a9b3719)" d="M 303.593583 230.727273
L 303.593583 230.727273
L 303.593583 230.727273
L 303.593583 230.727273
z
" style="fill:#808080;stroke:#808080;"/>
    <path clip-path="url(#p9f5a9b3719)" d="M 302.639886 216.719931
L 304.54728 216.719931
L 304.54728 214.812537
L 302.639886 214.812537
z
" style="fill:#808080;stroke:#808080;"/>
    <path clip-path="url(#p9f5a9b3719)" d="M 300.163056 204.235722
L 307.02411 204.235722
L 307.02411 197.374668
L 300.163056 197.374668
z
" style="fill:#808080;stroke:#808080;"/>
    <path clip-path="url(#p9f5a9b3719)" d="M 300.53054 188.907198
L 306.656626 188.907198
L 306.656626 182.781113
L 300.53054 182.781113
z
" style="fill:#808080;stroke:#808080;"/>
    <path clip-path="url(#p9f5a9b3719)" d="M 301.63821 172.83849
L 305.548956 172.83849
L 305.548956 168.927744
L 301.63821 168.927744
z
" style="fill:#808080;stroke:#808080;"/>
    <path clip-path="url(#p9f5a9b3719)" d="M 299.869693 159.645968
L 307.317473 159.645968
L 307.317473 152.198188
L 299.869693 152.198188
z
" style="fill:#808080;stroke:#808080;"/>
    <path clip-path="url(#p9f5a9b3719)" d="M 300.164949 144.389673
L 307.022217 144.389673
L 307.022217 137.532405
L 300.164949 137.532405
z
" style="fill:#808080;stroke:#808080;"/>
    <path clip-path="url(#p9f5a9b3719)" d="M 301.954465 127.639118
L 305.232701 127.639118
L 305.232701 124.360882
L 301.954465 124.360882
z
" style="fill:#808080;stroke:#808080;"/>
    <path clip-path="url(#p9f5a9b3719)" d="M 300.204861 114.427683
L 306.982305 114.427683
L 306.982305 107.650239
L 300.204861 107.650239
z
" style="fill:#808080;stroke:#808080;"/>
    <path clip-path="url(#p9f5a9b3719)" d="M 300.353285 99.31822
L 306.83388 99.31822
L 306.83388 92.837625
L 300.353285 92.837625
z
" style="fill:#808080;stroke:#808080;"/>
    <path clip-path="url(#p9f5a9b3719)" d="M 302.901294 81.809172
L 304.285871 81.809172
L 304.285871 80.424595
L 302.901294 80.424595
z
" style="fill:#808080;stroke:#808080;"/>
    <path clip-path="url(#p9f5a9b3719)" d="M 303.593583 66.155844
L 303.593583 66.155844
L 303.593583 66.155844
L 303.593583 66.155844
z
" style="fill:#808080;stroke:#808080;"/>
    <path clip-path="url(#p9f5a9b3719)" d="M 303.593583 51.194805
L 303.593583 51.194805
L 303.593583 51.194805
L 303.593583 51.194805
z
" style="fill:#808080;stroke:#808080;"/>
    <path clip-path="url(#p9f5a9b3719)" d="M 303.593583 36.233766
L 303.593583 36.233766
L 303.593583 36.233766
L 303.593583 36.233766
z
" style="fill:#808080;stroke:#808080;"/>
    <path clip-path="url(#p9f5a9b3719)" d="M 303.593583 21.272727
L 303.593583 21.272727
L 303.593583 21.272727
L 303.593583 21.272727
z
" style="fill:#808080;stroke:#808080;"/>
    <path clip-path="url(#p9f5a9b3719)" d="M 316.491979 230.727273
L 316.491979 230.727273
L 316.491979 230.727273
L 316.491979 230.727273
z
" style="fill:#808080;stroke:#808080;"/>
    <path clip-path="url(#p9f5a9b3719)" d="M 315.960266 216.297946
L 317.023691 216.297946
L 317.023691 215.234521
L 315.960266 215.234521
z
" style="fill:#808080;stroke:#808080;"/>
    <path clip-path="url(#p9f5a9b3719)" d="M 313.536617 203.760556
L 319.44734 203.760556
L 319.44734 197.849833
L 313.536617 197.849833
z
" style="fill:#808080;stroke:#808080;"/>
    <path clip-path="url(#p9f5a9b3719)" d="M 312.728751 189.607383
L 320.255206 189.607383
L 320.255206 182.080929
L 312.728751 182.080929
z
" style="fill:#808080;stroke:#808080;"/>
    <path clip-path="url(#p9f5a9b3719)" d="M 312.884665 174.49043
L 320.099292 174.49043
L 320.099292 167.275804
L 312.884665 167.275804
z
" style="fill:#808080;stroke:#808080;"/>
    <path clip-path="url(#p9f5a9b3719)" d="M 312.642306 159.771751
L 320.341651 159.771751
L 320.341651 152.072405
L 312.642306 152.072405
z
" style="fill:#808080;stroke:#808080;"/>
    <path clip-path="url(#p9f5a9b3719)" d="M 313.654814 143.798203
L 319.329143 143.798203
L 319.329143 138.123875
L 313.654814 138.123875
z
" style="fill:#808080;stroke:#808080;"/>
    <path clip-path="url(#p9f5a9b3719)" d="M 313.966629 128.52535
L 319.017328 128.52535
L 319.017328 123.47465
L 313.966629 123.47465
z
" style="fill:#808080;stroke:#808080;"/>
    <path clip-path="url(#p9f5a9b3719)" d="M 312.708339 114.822601
L 320.275618 114.822601
L 320.275618 107.255321
L 312.708339 107.255321
z
" style="fill:#808080;stroke:#808080;"/>
    <path clip-path="url(#p9f5a9b3719)" d="M 313.89655 98.67335
L 319.087407 98.67335
L 319.087407 93.482494
L 313.89655 93.482494
z
" style="fill:#808080;stroke:#808080;"/>
    <path clip-path="url(#p9f5a9b3719)" d="M 316.167849 81.441013
L 316.816109 81.441013
L 316.816109 80.792753
L 316.167849 80.792753
z
" style="fill:#808080;stroke:#808080;"/>
    <path clip-path="url(#p9f5a9b3719)" d="M 316.491979 66.155844
L 316.491979 66.155844
L 316.491979 66.155844
L 316.491979 66.155844
z
" style="fill:#808080;stroke:#808080;"/>
    <path clip-path="url(#p9f5a9b3719)" d="M 316.491979 51.194805
L 316.491979 51.194805
L 316.491979 51.194805
L 316.491979 51.194805
z
" style="fill:#808080;stroke:#808080;"/>
    <path clip-path="url(#p9f5a9b3719)" d="M 316.491979 36.233766
L 316.491979 36.233766
L 316.491979 36.233766
L 316.491979 36.233766
z
" style="fill:#808080;stroke:#808080;"/>
    <path clip-path="url(#p9f5a9b3719)" d="M 316.491979 21.272727
L 316.491979 21.272727
L 316.491979 21.272727
L 316.491979 21.272727
z
" style="fill:#808080;stroke:#808080;"/>
    <path clip-path="url(#p9f5a9b3719)" d="M 329.390374 230.727273
L 329.390374 230.727273
L 329.390374 230.727273
L 329.390374 230.727273
z
" style="fill:#808080;stroke:#808080;"/>
    <path clip-path="url(#p9f5a9b3719)" d="M 329.296282 215.860326
L 329.484467 215.860326
L 329.484467 215.672141
L 329.296282 215.672141
z
" style="fill:#808080;stroke:#808080;"/>
    <path clip-path="url(#p9f5a9b3719)" d="M 327.858468 202.337101
L 330.922281 202.337101
L 330.922281 199.273288
L 327.858468 199.273288
z
" style="fill:#808080;stroke:#808080;"/>
    <path clip-path="url(#p9f5a9b3719)" d="M 326.115741 189.118789
L 332.665008 189.118789
L 332.665008 182.569523
L 326.115741 182.569523
z
" style="fill:#808080;stroke:#808080;"/>
    <path clip-path="url(#p9f5a9b3719)" d="M 325.692809 174.580683
L 333.08794 174.580683
L 333.08794 167.185551
L 325.692809 167.185551
z
" style="fill:#808080;stroke:#808080;"/>
    <path clip-path="url(#p9f5a9b3719)" d="M 326.024021 159.288432
L 332.756728 159.288432
L 332.756728 152.555724
L 326.024021 152.555724
z
" style="fill:#808080;stroke:#808080;"/>
    <path clip-path="url(#p9f5a9b3719)" d="M 327.82946 142.521953
L 330.951288 142.521953
L 330.951288 139.400125
L 327.82946 139.400125
z
" style="fill:#808080;stroke:#808080;"/>
    <path clip-path="url(#p9f5a9b3719)" d="M 327.350933 128.039442
L 331.429816 128.039442
L 331.429816 123.960558
L 327.350933 123.960558
z
" style="fill:#808080;stroke:#808080;"/>
    <path clip-path="url(#p9f5a9b3719)" d="M 326.680904 113.748431
L 332.099845 113.748431
L 332.099845 108.329491
L 326.680904 108.329491
z
" style="fill:#808080;stroke:#808080;"/>
    <path clip-path="url(#p9f5a9b3719)" d="M 328.355928 97.112369
L 330.424821 97.112369
L 330.424821 95.043476
L 328.355928 95.043476
z
" style="fill:#808080;stroke:#808080;"/>
    <path clip-path="url(#p9f5a9b3719)" d="M 329.36608 81.141178
L 329.414669 81.141178
L 329.414669 81.092589
L 329.36608 81.092589
z
" style="fill:#808080;stroke:#808080;"/>
    <path clip-path="url(#p9f5a9b3719)" d="M 329.390374 66.155844
L 329.390374 66.155844
L 329.390374 66.155844
L 329.390374 66.155844
z
" style="fill:#808080;stroke:#808080;"/>
    <path clip-path="url(#p9f5a9b3719)" d="M 329.390374 51.194805
L 329.390374 51.194805
L 329.390374 51.194805
L 329.390374 51.194805
z
" style="fill:#808080;stroke:#808080;"/>
    <path clip-path="url(#p9f5a9b3719)" d="M 329.390374 36.233766
L 329.390374 36.233766
L 329.390374 36.233766
L 329.390374 36.233766
z
" style="fill:#808080;stroke:#808080;"/>
    <path clip-path="url(#p9f5a9b3719)" d="M 329.390374 21.272727
L 329.390374 21.272727
L 329.390374 21.272727
L 329.390374 21.272727
z
" style="fill:#808080;stroke:#808080;"/>
    <path clip-path="url(#p9f5a9b3719)" d="M 342.28877 230.727273
L 342.28877 230.727273
L 342.28877 230.727273
L 342.28877 230.727273
z
" style="fill:#808080;stroke:#808080;"/>
    <path clip-path="url(#p9f5a9b3719)" d="M 342.28877 215.766234
L 342.28877 215.766234
L 342.28877 215.766234
L 342.28877 215.766234
z
" style="fill:#808080;stroke:#808080;"/>
    <path clip-path="url(#p9f5a9b3719)" d="M 342.111903 200.982062
L 342.465637 200.982062
L 342.465637 200.628328
L 342.111903 200.628328
z
" style="fill:#808080;stroke:#808080;"/>
    <path clip-path="url(#p9f5a9b3719)" d="M 341.302219 186.830707
L 343.275321 186.830707
L 343.275321 184.857605
L 341.302219 184.857605
z
" style="fill:#808080;stroke:#808080;"/>
    <path clip-path="url(#p9f5a9b3719)" d="M 340.734867 172.43702
L 343.842673 172.43702
L 343.842673 169.329214
L 340.734867 169.329214
z
" style="fill:#808080;stroke:#808080;"/>
    <path clip-path="url(#p9f5a9b3719)" d="M 341.175453 157.035395
L 343.402087 157.035395
L 343.402087 154.808761
L 341.175453 154.808761
z
" style="fill:#808080;stroke:#808080;"/>
    <path clip-path="url(#p9f5a9b3719)" d="M 342.060867 141.188942
L 342.516673 141.188942
L 342.516673 140.733136
L 342.060867 140.733136
z
" style="fill:#808080;stroke:#808080;"/>
    <path clip-path="url(#p9f5a9b3719)" d="M 341.69467 126.5941
L 342.88287 126.5941
L 342.88287 125.4059
L 341.69467 125.4059
z
" style="fill:#808080;stroke:#808080;"/>
    <path clip-path="url(#p9f5a9b3719)" d="M 341.01059 112.317141
L 343.56695 112.317141
L 343.56695 109.760781
L 341.01059 109.760781
z
" style="fill:#808080;stroke:#808080;"/>
    <path clip-path="url(#p9f5a9b3719)" d="M 341.272165 97.094527
L 343.305375 97.094527
L 343.305375 95.061317
L 341.272165 95.061317
z
" style="fill:#808080;stroke:#808080;"/>
    <path clip-path="url(#p9f5a9b3719)" d="M 342.155703 81.24995
L 342.421837 81.24995
L 342.421837 80.983816
L 342.155703 80.983816
z
" style="fill:#808080;stroke:#808080;"/>
    <path clip-path="url(#p9f5a9b3719)" d="M 342.28877 66.155844
L 342.28877 66.155844
L 342.28877 66.155844
L 342.28877 66.155844
z
" style="fill:#808080;stroke:#808080;"/>
    <path clip-path="url(#p9f5a9b3719)" d="M 342.28877 51.194805
L 342.28877 51.194805
L 342.28877 51.194805
L 342.28877 51.194805
z
" style="fill:#808080;stroke:#808080;"/>
    <path clip-path="url(#p9f5a9b3719)" d="M 342.28877 36.233766
L 342.28877 36.233766
L 342.28877 36.233766
L 342.28877 36.233766
z
" style="fill:#808080;stroke:#808080;"/>
    <path clip-path="url(#p9f5a9b3719)" d="M 342.28877 21.272727
L 342.28877 21.272727
L 342.28877 21.272727
L 342.28877 21.272727
z
" style="fill:#808080;stroke:#808080;"/>
    <path clip-path="url(#p9f5a9b3719)" d="M 355.187166 230.727273
L 355.187166 230.727273
L 355.187166 230.727273
L 355.187166 230.727273
z
" style="fill:#808080;stroke:#808080;"/>
    <path clip-path="url(#p9f5a9b3719)" d="M 355.162871 215.790528
L 355.21146 215.790528
L 355.21146 215.741939
L 355.162871 215.741939
z
" style="fill:#808080;stroke:#808080;"/>
    <path clip-path="url(#p9f5a9b3719)" d="M 354.535727 201.456634
L 355.838604 201.456634
L 355.838604 200.153756
L 354.535727 200.153756
z
" style="fill:#808080;stroke:#808080;"/>
    <path clip-path="url(#p9f5a9b3719)" d="M 353.767232 187.264089
L 356.607099 187.264089
L 356.607099 184.424222
L 353.767232 184.424222
z
" style="fill:#808080;stroke:#808080;"/>
    <path clip-path="url(#p9f5a9b3719)" d="M 353.551292 172.518991
L 356.82304 172.518991
L 356.82304 169.247243
L 353.551292 169.247243
z
" style="fill:#808080;stroke:#808080;"/>
    <path clip-path="url(#p9f5a9b3719)" d="M 353.537638 157.571605
L 356.836693 157.571605
L 356.836693 154.27255
L 353.537638 154.27255
z
" style="fill:#808080;stroke:#808080;"/>
    <path clip-path="url(#p9f5a9b3719)" d="M 353.537638 142.610567
L 356.836693 142.610567
L 356.836693 139.311511
L 353.537638 139.311511
z
" style="fill:#808080;stroke:#808080;"/>
    <path clip-path="url(#p9f5a9b3719)" d="M 353.310027 127.877138
L 357.064304 127.877138
L 357.064304 124.122862
L 353.310027 124.122862
z
" style="fill:#808080;stroke:#808080;"/>
    <path clip-path="url(#p9f5a9b3719)" d="M 351.828887 114.39724
L 358.545444 114.39724
L 358.545444 107.680682
L 351.828887 107.680682
z
" style="fill:#808080;stroke:#808080;"/>
    <path clip-path="url(#p9f5a9b3719)" d="M 352.209818 99.05527
L 358.164514 99.05527
L 358.164514 93.100574
L 352.209818 93.100574
z
" style="fill:#808080;stroke:#808080;"/>
    <path clip-path="url(#p9f5a9b3719)" d="M 353.56197 82.742079
L 356.812361 82.742079
L 356.812361 79.491688
L 353.56197 79.491688
z
" style="fill:#808080;stroke:#808080;"/>
    <path clip-path="url(#p9f5a9b3719)" d="M 354.458329 66.884681
L 355.916003 66.884681
L 355.916003 65.427007
L 354.458329 65.427007
z
" style="fill:#808080;stroke:#808080;"/>
    <path clip-path="url(#p9f5a9b3719)" d="M 355.187166 51.194805
L 355.187166 51.194805
L 355.187166 51.194805
L 355.187166 51.194805
z
" style="fill:#808080;stroke:#808080;"/>
    <path clip-path="url(#p9f5a9b3719)" d="M 355.187166 36.233766
L 355.187166 36.233766
L 355.187166 36.233766
L 355.187166 36.233766
z
" style="fill:#808080;stroke:#808080;"/>
    <path clip-path="url(#p9f5a9b3719)" d="M 355.187166 21.272727
L 355.187166 21.272727
L 355.187166 21.272727
L 355.187166 21.272727
z
" style="fill:#808080;stroke:#808080;"/>
    <path clip-path="url(#p9f5a9b3719)" d="M 368.085561 230.727273
L 368.085561 230.727273
L 368.085561 230.727273
L 368.085561 230.727273
z
" style="fill:#808080;stroke:#808080;"/>
    <path clip-path="url(#p9f5a9b3719)" d="M 367.605168 216.246628
L 368.565955 216.246628
L 368.565955 215.28584
L 367.605168 215.28584
z
" style="fill:#808080;stroke:#808080;"/>
    <path clip-path="url(#p9f5a9b3719)" d="M 365.44907 203.441687
L 370.722053 203.441687
L 370.722053 198.168703
L 365.44907 198.168703
z
" style="fill:#808080;stroke:#808080;"/>
    <path clip-path="url(#p9f5a9b3719)" d="M 364.447374 189.482343
L 371.723749 189.482343
L 371.723749 182.205969
L 364.447374 182.205969
z
" style="fill:#808080;stroke:#808080;"/>
    <path clip-path="url(#p9f5a9b3719)" d="M 364.358345 174.610334
L 371.812778 174.610334
L 371.812778 167.1559
L 364.358345 167.1559
z
" style="fill:#808080;stroke:#808080;"/>
    <path clip-path="url(#p9f5a9b3719)" d="M 364.35415 159.653489
L 371.816972 159.653489
L 371.816972 152.190667
L 364.35415 152.190667
z
" style="fill:#808080;stroke:#808080;"/>
    <path clip-path="url(#p9f5a9b3719)" d="M 364.35415 144.69245
L 371.816972 144.69245
L 371.816972 137.229628
L 364.35415 137.229628
z
" style="fill:#808080;stroke:#808080;"/>
    <path clip-path="url(#p9f5a9b3719)" d="M 364.342937 129.742625
L 371.828186 129.742625
L 371.828186 122.257375
L 364.342937 122.257375
z
" style="fill:#808080;stroke:#808080;"/>
    <path clip-path="url(#p9f5a9b3719)" d="M 364.231598 114.892924
L 371.939525 114.892924
L 371.939525 107.184998
L 364.231598 107.184998
z
" style="fill:#808080;stroke:#808080;"/>
    <path clip-path="url(#p9f5a9b3719)" d="M 364.265903 99.897581
L 371.90522 99.897581
L 371.90522 92.258263
L 364.265903 92.258263
z
" style="fill:#808080;stroke:#808080;"/>
    <path clip-path="url(#p9f5a9b3719)" d="M 364.403111 84.799333
L 371.768012 84.799333
L 371.768012 77.434433
L 364.403111 77.434433
z
" style="fill:#808080;stroke:#808080;"/>
    <path clip-path="url(#p9f5a9b3719)" d="M 365.720364 68.521042
L 370.450759 68.521042
L 370.450759 63.790646
L 365.720364 63.790646
z
" style="fill:#808080;stroke:#808080;"/>
    <path clip-path="url(#p9f5a9b3719)" d="M 367.781151 51.499215
L 368.389972 51.499215
L 368.389972 50.890395
L 367.781151 50.890395
z
" style="fill:#808080;stroke:#808080;"/>
    <path clip-path="url(#p9f5a9b3719)" d="M 368.085561 36.233766
L 368.085561 36.233766
L 368.085561 36.233766
L 368.085561 36.233766
z
" style="fill:#808080;stroke:#808080;"/>
    <path clip-path="url(#p9f5a9b3719)" d="M 368.085561 21.272727
L 368.085561 21.272727
L 368.085561 21.272727
L 368.085561 21.272727
z
" style="fill:#808080;stroke:#808080;"/>
    <path clip-path="url(#p9f5a9b3719)" d="M 380.983957 230.727273
L 380.983957 230.727273
L 380.983957 230.727273
L 380.983957 230.727273
z
" style="fill:#808080;stroke:#808080;"/>
    <path clip-path="url(#p9f5a9b3719)" d="M 380.006422 216.743769
L 381.961493 216.743769
L 381.961493 214.788698
L 380.006422 214.788698
z
" style="fill:#808080;stroke:#808080;"/>
    <path clip-path="url(#p9f5a9b3719)" d="M 377.537981 204.251171
L 384.429934 204.251171
L 384.429934 197.359218
L 377.537981 197.359218
z
" style="fill:#808080;stroke:#808080;"/>
    <path clip-path="url(#p9f5a9b3719)" d="M 377.233613 189.5945
L 384.734302 189.5945
L 384.734302 182.093812
L 377.233613 182.093812
z
" style="fill:#808080;stroke:#808080;"/>
    <path clip-path="url(#p9f5a9b3719)" d="M 377.552656 174.314418
L 384.415258 174.314418
L 384.415258 167.451816
L 377.552656 167.451816
z
" style="fill:#808080;stroke:#808080;"/>
    <path clip-path="url(#p9f5a9b3719)" d="M 377.580116 159.325919
L 384.387798 159.325919
L 384.387798 152.518237
L 377.580116 152.518237
z
" style="fill:#808080;stroke:#808080;"/>
    <path clip-path="url(#p9f5a9b3719)" d="M 377.580116 144.36488
L 384.387798 144.36488
L 384.387798 137.557198
L 377.580116 137.557198
z
" style="fill:#808080;stroke:#808080;"/>
    <path clip-path="url(#p9f5a9b3719)" d="M 377.541751 129.442206
L 384.426164 129.442206
L 384.426164 122.557794
L 377.541751 122.557794
z
" style="fill:#808080;stroke:#808080;"/>
    <path clip-path="url(#p9f5a9b3719)" d="M 377.18444 114.838479
L 384.783475 114.838479
L 384.783475 107.239443
L 377.18444 107.239443
z
" style="fill:#808080;stroke:#808080;"/>
    <path clip-path="url(#p9f5a9b3719)" d="M 377.291903 99.769977
L 384.676012 99.769977
L 384.676012 92.385868
L 377.291903 92.385868
z
" style="fill:#808080;stroke:#808080;"/>
    <path clip-path="url(#p9f5a9b3719)" d="M 377.575784 84.525056
L 384.39213 84.525056
L 384.39213 77.70871
L 377.575784 77.70871
z
" style="fill:#808080;stroke:#808080;"/>
    <path clip-path="url(#p9f5a9b3719)" d="M 378.026799 69.113003
L 383.941116 69.113003
L 383.941116 63.198686
L 378.026799 63.198686
z
" style="fill:#808080;stroke:#808080;"/>
    <path clip-path="url(#p9f5a9b3719)" d="M 380.098955 52.079808
L 381.86896 52.079808
L 381.86896 50.309803
L 380.098955 50.309803
z
" style="fill:#808080;stroke:#808080;"/>
    <path clip-path="url(#p9f5a9b3719)" d="M 380.983957 36.233766
L 380.983957 36.233766
L 380.983957 36.233766
L 380.983957 36.233766
z
" style="fill:#808080;stroke:#808080;"/>
    <path clip-path="url(#p9f5a9b3719)" d="M 380.983957 21.272727
L 380.983957 21.272727
L 380.983957 21.272727
L 380.983957 21.272727
z
" style="fill:#808080;stroke:#808080;"/>
    <path clip-path="url(#p9f5a9b3719)" d="M 393.882353 230.727273
L 393.882353 230.727273
L 393.882353 230.727273
L 393.882353 230.727273
z
" style="fill:#808080;stroke:#808080;"/>
    <path clip-path="url(#p9f5a9b3719)" d="M 392.979196 216.669391
L 394.78551 216.669391
L 394.78551 214.863077
L 392.979196 214.863077
z
" style="fill:#808080;stroke:#808080;"/>
    <path clip-path="url(#p9f5a9b3719)" d="M 390.536311 204.151236
L 397.228395 204.151236
L 397.228395 197.459153
L 390.536311 197.459153
z
" style="fill:#808080;stroke:#808080;"/>
    <path clip-path="url(#p9f5a9b3719)" d="M 390.796274 188.930235
L 396.968432 188.930235
L 396.968432 182.758077
L 390.796274 182.758077
z
" style="fill:#808080;stroke:#808080;"/>
    <path clip-path="url(#p9f5a9b3719)" d="M 392.833176 171.932293
L 394.931529 171.932293
L 394.931529 169.83394
L 392.833176 169.83394
z
" style="fill:#808080;stroke:#808080;"/>
    <path clip-path="url(#p9f5a9b3719)" d="M 392.99635 156.80808
L 394.768355 156.80808
L 394.768355 155.036075
L 392.99635 155.036075
z
" style="fill:#808080;stroke:#808080;"/>
    <path clip-path="url(#p9f5a9b3719)" d="M 392.99635 141.847041
L 394.768355 141.847041
L 394.768355 140.075036
L 392.99635 140.075036
z
" style="fill:#808080;stroke:#808080;"/>
    <path clip-path="url(#p9f5a9b3719)" d="M 392.538005 127.344348
L 395.226701 127.344348
L 395.226701 124.655652
L 392.538005 124.655652
z
" style="fill:#808080;stroke:#808080;"/>
    <path clip-path="url(#p9f5a9b3719)" d="M 390.462165 114.459149
L 397.302541 114.459149
L 397.302541 107.618773
L 390.462165 107.618773
z
" style="fill:#808080;stroke:#808080;"/>
    <path clip-path="url(#p9f5a9b3719)" d="M 390.946528 99.013747
L 396.818178 99.013747
L 396.818178 93.142097
L 390.946528 93.142097
z
" style="fill:#808080;stroke:#808080;"/>
    <path clip-path="url(#p9f5a9b3719)" d="M 392.912394 82.086842
L 394.852312 82.086842
L 394.852312 80.146924
L 392.912394 80.146924
z
" style="fill:#808080;stroke:#808080;"/>
    <path clip-path="url(#p9f5a9b3719)" d="M 393.0471 66.991097
L 394.717606 66.991097
L 394.717606 65.320592
L 393.0471 65.320592
z
" style="fill:#808080;stroke:#808080;"/>
    <path clip-path="url(#p9f5a9b3719)" d="M 393.562808 51.51435
L 394.201898 51.51435
L 394.201898 50.87526
L 393.562808 50.87526
z
" style="fill:#808080;stroke:#808080;"/>
    <path clip-path="url(#p9f5a9b3719)" d="M 393.882353 36.233766
L 393.882353 36.233766
L 393.882353 36.233766
L 393.882353 36.233766
z
" style="fill:#808080;stroke:#808080;"/>
    <path clip-path="url(#p9f5a9b3719)" d="M 393.882353 21.272727
L 393.882353 21.272727
L 393.882353 21.272727
L 393.882353 21.272727
z
" style="fill:#808080;stroke:#808080;"/>
    <path clip-path="url(#p9f5a9b3719)" d="M 406.780749 230.727273
L 406.780749 230.727273
L 406.780749 230.727273
L 406.780749 230.727273
z
" style="fill:#808080;stroke:#808080;"/>
    <path clip-path="url(#p9f5a9b3719)" d="M 406.415521 216.131461
L 407.145976 216.131461
L 407.145976 215.401006
L 406.415521 215.401006
z
" style="fill:#808080;stroke:#808080;"/>
    <path clip-path="url(#p9f5a9b3719)" d="M 405.066991 202.518952
L 408.494506 202.518952
L 408.494506 199.091438
L 405.066991 199.091438
z
" style="fill:#808080;stroke:#808080;"/>
    <path clip-path="url(#p9f5a9b3719)" d="M 405.219079 187.405826
L 408.342419 187.405826
L 408.342419 184.282486
L 405.219079 184.282486
z
" style="fill:#808080;stroke:#808080;"/>
    <path clip-path="url(#p9f5a9b3719)" d="M 406.481225 171.18264
L 407.080272 171.18264
L 407.080272 170.583593
L 406.481225 170.583593
z
" style="fill:#808080;stroke:#808080;"/>
    <path clip-path="url(#p9f5a9b3719)" d="M 406.780749 155.922078
L 406.780749 155.922078
L 406.780749 155.922078
L 406.780749 155.922078
z
" style="fill:#808080;stroke:#808080;"/>
    <path clip-path="url(#p9f5a9b3719)" d="M 406.780749 140.961039
L 406.780749 140.961039
L 406.780749 140.961039
L 406.780749 140.961039
z
" style="fill:#808080;stroke:#808080;"/>
    <path clip-path="url(#p9f5a9b3719)" d="M 406.300355 126.480394
L 407.261143 126.480394
L 407.261143 125.519606
L 406.300355 125.519606
z
" style="fill:#808080;stroke:#808080;"/>
    <path clip-path="url(#p9f5a9b3719)" d="M 405.207969 112.611741
L 408.353529 112.611741
L 408.353529 109.466181
L 405.207969 109.466181
z
" style="fill:#808080;stroke:#808080;"/>
    <path clip-path="url(#p9f5a9b3719)" d="M 405.448308 97.410363
L 408.11319 97.410363
L 408.11319 94.745481
L 405.448308 94.745481
z
" style="fill:#808080;stroke:#808080;"/>
    <path clip-path="url(#p9f5a9b3719)" d="M 406.594139 81.303493
L 406.967359 81.303493
L 406.967359 80.930273
L 406.594139 80.930273
z
" style="fill:#808080;stroke:#808080;"/>
    <path clip-path="url(#p9f5a9b3719)" d="M 406.780749 66.155844
L 406.780749 66.155844
L 406.780749 66.155844
L 406.780749 66.155844
z
" style="fill:#808080;stroke:#808080;"/>
    <path clip-path="url(#p9f5a9b3719)" d="M 406.780749 51.194805
L 406.780749 51.194805
L 406.780749 51.194805
L 406.780749 51.194805
z
" style="fill:#808080;stroke:#808080;"/>
    <path clip-path="url(#p9f5a9b3719)" d="M 406.780749 36.233766
L 406.780749 36.233766
L 406.780749 36.233766
L 406.780749 36.233766
z
" style="fill:#808080;stroke:#808080;"/>
    <path clip-path="url(#p9f5a9b3719)" d="M 406.780749 21.272727
L 406.780749 21.272727
L 406.780749 21.272727
L 406.780749 21.272727
z
" style="fill:#808080;stroke:#808080;"/>
    <path clip-path="url(#p9f5a9b3719)" d="M 419.679144 230.727273
L 419.679144 230.727273
L 419.679144 230.727273
L 419.679144 230.727273
z
" style="fill:#808080;stroke:#808080;"/>
    <path clip-path="url(#p9f5a9b3719)" d="M 419.679144 215.766234
L 419.679144 215.766234
L 419.679144 215.766234
L 419.679144 215.766234
z
" style="fill:#808080;stroke:#808080;"/>
    <path clip-path="url(#p9f5a9b3719)" d="M 419.637065 200.847274
L 419.721224 200.847274
L 419.721224 200.763115
L 419.637065 200.763115
z
" style="fill:#808080;stroke:#808080;"/>
    <path clip-path="url(#p9f5a9b3719)" d="M 419.679144 185.844156
L 419.679144 185.844156
L 419.679144 185.844156
L 419.679144 185.844156
z
" style="fill:#808080;stroke:#808080;"/>
    <path clip-path="url(#p9f5a9b3719)" d="M 419.679144 170.883117
L 419.679144 170.883117
L 419.679144 170.883117
L 419.679144 170.883117
z
" style="fill:#808080;stroke:#808080;"/>
    <path clip-path="url(#p9f5a9b3719)" d="M 419.679144 155.922078
L 419.679144 155.922078
L 419.679144 155.922078
L 419.679144 155.922078
z
" style="fill:#808080;stroke:#808080;"/>
    <path clip-path="url(#p9f5a9b3719)" d="M 419.679144 140.961039
L 419.679144 140.961039
L 419.679144 140.961039
L 419.679144 140.961039
z
" style="fill:#808080;stroke:#808080;"/>
    <path clip-path="url(#p9f5a9b3719)" d="M 419.679144 126
L 419.679144 126
L 419.679144 126
L 419.679144 126
z
" style="fill:#808080;stroke:#808080;"/>
    <path clip-path="url(#p9f5a9b3719)" d="M 419.679144 111.038961
L 419.679144 111.038961
L 419.679144 111.038961
L 419.679144 111.038961
z
" style="fill:#808080;stroke:#808080;"/>
    <path clip-path="url(#p9f5a9b3719)" d="M 419.679144 96.077922
L 419.679144 96.077922
L 419.679144 96.077922
L 419.679144 96.077922
z
" style="fill:#808080;stroke:#808080;"/>
    <path clip-path="url(#p9f5a9b3719)" d="M 419.679144 81.116883
L 419.679144 81.116883
L 419.679144 81.116883
L 419.679144 81.116883
z
" style="fill:#808080;stroke:#808080;"/>
    <path clip-path="url(#p9f5a9b3719)" d="M 419.679144 66.155844
L 419.679144 66.155844
L 419.679144 66.155844
L 419.679144 66.155844
z
" style="fill:#808080;stroke:#808080;"/>
    <path clip-path="url(#p9f5a9b3719)" d="M 419.679144 51.194805
L 419.679144 51.194805
L 419.679144 51.194805
L 419.679144 51.194805
z
" style="fill:#808080;stroke:#808080;"/>
    <path clip-path="url(#p9f5a9b3719)" d="M 419.679144 36.233766
L 419.679144 36.233766
L 419.679144 36.233766
L 419.679144 36.233766
z
" style="fill:#808080;stroke:#808080;"/>
    <path clip-path="url(#p9f5a9b3719)" d="M 419.679144 21.272727
L 419.679144 21.272727
L 419.679144 21.272727
L 419.679144 21.272727
z
" style="fill:#808080;stroke:#808080;"/>
    <path clip-path="url(#p9f5a9b3719)" d="M 432.57754 230.727273
L 432.57754 230.727273
L 432.57754 230.727273
L 432.57754 230.727273
z
" style="fill:#808080;stroke:#808080;"/>
    <path clip-path="url(#p9f5a9b3719)" d="M 432.57754 215.766234
L 432.57754 215.766234
L 432.57754 215.766234
L 432.57754 215.766234
z
" style="fill:#808080;stroke:#808080;"/>
    <path clip-path="url(#p9f5a9b3719)" d="M 432.57754 200.805195
L 432.57754 200.805195
L 432.57754 200.805195
L 432.57754 200.805195
z
" style="fill:#808080;stroke:#808080;"/>
    <path clip-path="url(#p9f5a9b3719)" d="M 432.57754 185.844156
L 432.57754 185.844156
L 432.57754 185.844156
L 432.57754 185.844156
z
" style="fill:#808080;stroke:#808080;"/>
    <path clip-path="url(#p9f5a9b3719)" d="M 432.57754 170.883117
L 432.57754 170.883117
L 432.57754 170.883117
L 432.57754 170.883117
z
" style="fill:#808080;stroke:#808080;"/>
    <path clip-path="url(#p9f5a9b3719)" d="M 432.57754 155.922078
L 432.57754 155.922078
L 432.57754 155.922078
L 432.57754 155.922078
z
" style="fill:#808080;stroke:#808080;"/>
    <path clip-path="url(#p9f5a9b3719)" d="M 432.57754 140.961039
L 432.57754 140.961039
L 432.57754 140.961039
L 432.57754 140.961039
z
" style="fill:#808080;stroke:#808080;"/>
    <path clip-path="url(#p9f5a9b3719)" d="M 432.57754 126
L 432.57754 126
L 432.57754 126
L 432.57754 126
z
" style="fill:#808080;stroke:#808080;"/>
    <path clip-path="url(#p9f5a9b3719)" d="M 432.57754 111.038961
L 432.57754 111.038961
L 432.57754 111.038961
L 432.57754 111.038961
z
" style="fill:#808080;stroke:#808080;"/>
    <path clip-path="url(#p9f5a9b3719)" d="M 432.57754 96.077922
L 432.57754 96.077922
L 432.57754 96.077922
L 432.57754 96.077922
z
" style="fill:#808080;stroke:#808080;"/>
    <path clip-path="url(#p9f5a9b3719)" d="M 432.57754 81.116883
L 432.57754 81.116883
L 432.57754 81.116883
L 432.57754 81.116883
z
" style="fill:#808080;stroke:#808080;"/>
    <path clip-path="url(#p9f5a9b3719)" d="M 432.57754 66.155844
L 432.57754 66.155844
L 432.57754 66.155844
L 432.57754 66.155844
z
" style="fill:#808080;stroke:#808080;"/>
    <path clip-path="url(#p9f5a9b3719)" d="M 432.57754 51.194805
L 432.57754 51.194805
L 432.57754 51.194805
L 432.57754 51.194805
z
" style="fill:#808080;stroke:#808080;"/>
    <path clip-path="url(#p9f5a9b3719)" d="M 432.57754 36.233766
L 432.57754 36.233766
L 432.57754 36.233766
L 432.57754 36.233766
z
" style="fill:#808080;stroke:#808080;"/>
    <path clip-path="url(#p9f5a9b3719)" d="M 432.57754 21.272727
L 432.57754 21.272727
L 432.57754 21.272727
L 432.57754 21.272727
z
" style="fill:#808080;stroke:#808080;"/>
    <path clip-path="url(#p9f5a9b3719)" d="M 445.475936 230.727273
L 445.475936 230.727273
L 445.475936 230.727273
L 445.475936 230.727273
z
" style="fill:#808080;stroke:#808080;"/>
    <path clip-path="url(#p9f5a9b3719)" d="M 445.475936 215.766234
L 445.475936 215.766234
L 445.475936 215.766234
L 445.475936 215.766234
z
" style="fill:#808080;stroke:#808080;"/>
    <path clip-path="url(#p9f5a9b3719)" d="M 445.475936 200.805195
L 445.475936 200.805195
L 445.475936 200.805195
L 445.475936 200.805195
z
" style="fill:#808080;stroke:#808080;"/>
    <path clip-path="url(#p9f5a9b3719)" d="M 445.475936 185.844156
L 445.475936 185.844156
L 445.475936 185.844156
L 445.475936 185.844156
z
" style="fill:#808080;stroke:#808080;"/>
    <path clip-path="url(#p9f5a9b3719)" d="M 445.475936 170.883117
L 445.475936 170.883117
L 445.475936 170.883117
L 445.475936 170.883117
z
" style="fill:#808080;stroke:#808080;"/>
    <path clip-path="url(#p9f5a9b3719)" d="M 445.475936 155.922078
L 445.475936 155.922078
L 445.475936 155.922078
L 445.475936 155.922078
z
" style="fill:#808080;stroke:#808080;"/>
    <path clip-path="url(#p9f5a9b3719)" d="M 445.475936 140.961039
L 445.475936 140.961039
L 445.475936 140.961039
L 445.475936 140.961039
z
" style="fill:#808080;stroke:#808080;"/>
    <path clip-path="url(#p9f5a9b3719)" d="M 445.475936 126
L 445.475936 126
L 445.475936 126
L 445.475936 126
z
" style="fill:#808080;stroke:#808080;"/>
    <path clip-path="url(#p9f5a9b3719)" d="M 445.475936 111.038961
L 445.475936 111.038961
L 445.475936 111.038961
L 445.475936 111.038961
z
" style="fill:#808080;stroke:#808080;"/>
    <path clip-path="url(#p9f5a9b3719)" d="M 445.475936 96.077922
L 445.475936 96.077922
L 445.475936 96.077922
L 445.475936 96.077922
z
" style="fill:#808080;stroke:#808080;"/>
    <path clip-path="url(#p9f5a9b3719)" d="M 445.475936 81.116883
L 445.475936 81.116883
L 445.475936 81.116883
L 445.475936 81.116883
z
" style="fill:#808080;stroke:#808080;"/>
    <path clip-path="url(#p9f5a9b3719)" d="M 445.475936 66.155844
L 445.475936 66.155844
L 445.475936 66.155844
L 445.475936 66.155844
z
" style="fill:#808080;stroke:#808080;"/>
    <path clip-path="url(#p9f5a9b3719)" d="M 445.475936 51.194805
L 445.475936 51.194805
L 445.475936 51.194805
L 445.475936 51.194805
z
" style="fill:#808080;stroke:#808080;"/>
    <path clip-path="url(#p9f5a9b3719)" d="M 445.475936 36.233766
L 445.475936 36.233766
L 445.475936 36.233766
L 445.475936 36.233766
z
" style="fill:#808080;stroke:#808080;"/>
    <path clip-path="url(#p9f5a9b3719)" d="M 445.475936 21.272727
L 445.475936 21.272727
L 445.475936 21.272727
L 445.475936 21.272727
z
" style="fill:#808080;stroke:#808080;"/>
    <path clip-path="url(#p9f5a9b3719)" d="M 458.374332 230.727273
L 458.374332 230.727273
L 458.374332 230.727273
L 458.374332 230.727273
z
" style="fill:#808080;stroke:#808080;"/>
    <path clip-path="url(#p9f5a9b3719)" d="M 458.374332 215.766234
L 458.374332 215.766234
L 458.374332 215.766234
L 458.374332 215.766234
z
" style="fill:#808080;stroke:#808080;"/>
    <path clip-path="url(#p9f5a9b3719)" d="M 458.374332 200.805195
L 458.374332 200.805195
L 458.374332 200.805195
L 458.374332 200.805195
z
" style="fill:#808080;stroke:#808080;"/>
    <path clip-path="url(#p9f5a9b3719)" d="M 458.374332 185.844156
L 458.374332 185.844156
L 458.374332 185.844156
L 458.374332 185.844156
z
" style="fill:#808080;stroke:#808080;"/>
    <path clip-path="url(#p9f5a9b3719)" d="M 458.374332 170.883117
L 458.374332 170.883117
L 458.374332 170.883117
L 458.374332 170.883117
z
" style="fill:#808080;stroke:#808080;"/>
    <path clip-path="url(#p9f5a9b3719)" d="M 458.374332 155.922078
L 458.374332 155.922078
L 458.374332 155.922078
L 458.374332 155.922078
z
" style="fill:#808080;stroke:#808080;"/>
    <path clip-path="url(#p9f5a9b3719)" d="M 458.374332 140.961039
L 458.374332 140.961039
L 458.374332 140.961039
L 458.374332 140.961039
z
" style="fill:#808080;stroke:#808080;"/>
    <path clip-path="url(#p9f5a9b3719)" d="M 458.374332 126
L 458.374332 126
L 458.374332 126
L 458.374332 126
z
" style="fill:#808080;stroke:#808080;"/>
    <path clip-path="url(#p9f5a9b3719)" d="M 458.374332 111.038961
L 458.374332 111.038961
L 458.374332 111.038961
L 458.374332 111.038961
z
" style="fill:#808080;stroke:#808080;"/>
    <path clip-path="url(#p9f5a9b3719)" d="M 458.374332 96.077922
L 458.374332 96.077922
L 458.374332 96.077922
L 458.374332 96.077922
z
" style="fill:#808080;stroke:#808080;"/>
    <path clip-path="url(#p9f5a9b3719)" d="M 458.374332 81.116883
L 458.374332 81.116883
L 458.374332 81.116883
L 458.374332 81.116883
z
" style="fill:#808080;stroke:#808080;"/>
    <path clip-path="url(#p9f5a9b3719)" d="M 458.374332 66.155844
L 458.374332 66.155844
L 458.374332 66.155844
L 458.374332 66.155844
z
" style="fill:#808080;stroke:#808080;"/>
    <path clip-path="url(#p9f5a9b3719)" d="M 458.374332 51.194805
L 458.374332 51.194805
L 458.374332 51.194805
L 458.374332 51.194805
z
" style="fill:#808080;stroke:#808080;"/>
    <path clip-path="url(#p9f5a9b3719)" d="M 458.374332 36.233766
L 458.374332 36.233766
L 458.374332 36.233766
L 458.374332 36.233766
z
" style="fill:#808080;stroke:#808080;"/>
    <path clip-path="url(#p9f5a9b3719)" d="M 458.374332 21.272727
L 458.374332 21.272727
L 458.374332 21.272727
L 458.374332 21.272727
z
" style="fill:#808080;stroke:#808080;"/>
    <path clip-path="url(#p9f5a9b3719)" d="M 471.272727 230.727273
L 471.272727 230.727273
L 471.272727 230.727273
L 471.272727 230.727273
z
" style="fill:#808080;stroke:#808080;"/>
    <path clip-path="url(#p9f5a9b3719)" d="M 471.272727 215.766234
L 471.272727 215.766234
L 471.272727 215.766234
L 471.272727 215.766234
z
" style="fill:#808080;stroke:#808080;"/>
    <path clip-path="url(#p9f5a9b3719)" d="M 471.272727 200.805195
L 471.272727 200.805195
L 471.272727 200.805195
L 471.272727 200.805195
z
" style="fill:#808080;stroke:#808080;"/>
    <path clip-path="url(#p9f5a9b3719)" d="M 471.272727 185.844156
L 471.272727 185.844156
L 471.272727 185.844156
L 471.272727 185.844156
z
" style="fill:#808080;stroke:#808080;"/>
    <path clip-path="url(#p9f5a9b3719)" d="M 471.272727 170.883117
L 471.272727 170.883117
L 471.272727 170.883117
L 471.272727 170.883117
z
" style="fill:#808080;stroke:#808080;"/>
    <path clip-path="url(#p9f5a9b3719)" d="M 471.272727 155.922078
L 471.272727 155.922078
L 471.272727 155.922078
L 471.272727 155.922078
z
" style="fill:#808080;stroke:#808080;"/>
    <path clip-path="url(#p9f5a9b3719)" d="M 471.272727 140.961039
L 471.272727 140.961039
L 471.272727 140.961039
L 471.272727 140.961039
z
" style="fill:#808080;stroke:#808080;"/>
    <path clip-path="url(#p9f5a9b3719)" d="M 471.272727 126
L 471.272727 126
L 471.272727 126
L 471.272727 126
z
" style="fill:#808080;stroke:#808080;"/>
    <path clip-path="url(#p9f5a9b3719)" d="M 471.272727 111.038961
L 471.272727 111.038961
L 471.272727 111.038961
L 471.272727 111.038961
z
" style="fill:#808080;stroke:#808080;"/>
    <path clip-path="url(#p9f5a9b3719)" d="M 471.272727 96.077922
L 471.272727 96.077922
L 471.272727 96.077922
L 471.272727 96.077922
z
" style="fill:#808080;stroke:#808080;"/>
    <path clip-path="url(#p9f5a9b3719)" d="M 471.272727 81.116883
L 471.272727 81.116883
L 471.272727 81.116883
L 471.272727 81.116883
z
" style="fill:#808080;stroke:#808080;"/>
    <path clip-path="url(#p9f5a9b3719)" d="M 471.272727 66.155844
L 471.272727 66.155844
L 471.272727 66.155844
L 471.272727 66.155844
z
" style="fill:#808080;stroke:#808080;"/>
    <path clip-path="url(#p9f5a9b3719)" d="M 471.272727 51.194805
L 471.272727 51.194805
L 471.272727 51.194805
L 471.272727 51.194805
z
" style="fill:#808080;stroke:#808080;"/>
    <path clip-path="url(#p9f5a9b3719)" d="M 471.272727 36.233766
L 471.272727 36.233766
L 471.272727 36.233766
L 471.272727 36.233766
z
" style="fill:#808080;stroke:#808080;"/>
    <path clip-path="url(#p9f5a9b3719)" d="M 471.272727 21.272727
L 471.272727 21.272727
L 471.272727 21.272727
L 471.272727 21.272727
z
" style="fill:#808080;stroke:#808080;"/>
   </g>
  </g>
 </g>
 <defs>
  <clipPath id="p9f5a9b3719">
   <rect height="230.4" width="482.4" x="10.8" y="10.8"/>
  </clipPath>
 </defs>
</svg>
